<svg width="107" height="33" viewBox="0 0 107 33" fill="none" xmlns="http://www.w3.org/2000/svg">
<path d="M13.7285 13.0865L12.1067 11.4647C10.9918 10.3498 10.9918 8.56583 12.1067 7.45088L13.7285 5.82913C14.8434 4.71418 16.6273 4.71418 17.7423 5.82913L19.364 7.45088C20.479 8.56583 20.479 10.3498 19.364 11.4647L17.7423 13.0865C16.6476 14.1811 14.8434 14.1811 13.7285 13.0865Z" fill="#00AD73"/>
<path d="M20.7431 20.1004L19.1214 18.4786C18.0064 17.3637 18.0064 15.5797 19.1214 14.4648L20.7431 12.843C21.8581 11.7281 23.642 11.7281 24.7569 12.843L26.3787 14.4648C27.4936 15.5797 27.4936 17.3637 26.3787 18.4786L24.7569 20.1004C23.6623 21.1951 21.8581 21.1951 20.7431 20.1004Z" fill="#00AD73"/>
<path d="M6.7148 20.1004L5.09305 18.4786C3.9781 17.3637 3.9781 15.5797 5.09305 14.4648L6.7148 12.843C7.82975 11.7281 9.61367 11.7281 10.7286 12.843L12.3504 14.4648C13.4653 15.5797 13.4653 17.3637 12.3504 18.4786L10.7286 20.1004C9.61367 21.2153 7.82975 21.2153 6.7148 20.1004Z" fill="#00AD73"/>
<path d="M13.7285 27.1145L12.1067 25.4928C10.9918 24.3778 10.9918 22.5939 12.1067 21.479L13.7285 19.8572C14.8434 18.7423 16.6273 18.7423 17.7423 19.8572L19.364 21.479C20.479 22.5939 20.479 24.3778 19.364 25.4928L17.7423 27.1145C16.6273 28.2295 14.8434 28.2295 13.7285 27.1145Z" fill="#00AD73"/>
<path d="M7.22245 5.9305L6.35076 5.05881C5.56016 4.26821 5.56016 2.99108 6.35076 2.20048L7.22245 1.32879C8.01306 0.538189 9.29018 0.538189 10.0808 1.32879L10.9525 2.20048C11.7431 2.99108 11.7431 4.26821 10.9525 5.05881L10.0808 5.9305C9.29018 6.7211 8.01306 6.7211 7.22245 5.9305Z" fill="#26E1A2"/>
<path d="M24.2497 5.9305L25.1214 5.05881C25.912 4.26821 25.912 2.99108 25.1214 2.20048L24.2497 1.32879C23.4591 0.538189 22.182 0.538189 21.3914 1.32879L20.5197 2.20048C19.7291 2.99108 19.7291 4.26821 20.5197 5.05881L21.3914 5.9305C22.182 6.7211 23.4591 6.7211 24.2497 5.9305Z" fill="#26E1A2"/>
<path d="M24.2497 27.0131L25.1214 27.8848C25.912 28.6754 25.912 29.9525 25.1214 30.7431L24.2497 31.6148C23.4591 32.4054 22.182 32.4054 21.3914 31.6148L20.5197 30.7431C19.7291 29.9525 19.7291 28.6754 20.5197 27.8848L21.3914 27.0131C22.182 26.2225 23.4591 26.2225 24.2497 27.0131Z" fill="#26E1A2"/>
<path d="M7.22245 27.0131L6.35076 27.8848C5.56016 28.6754 5.56016 29.9525 6.35076 30.7431L7.22245 31.6148C8.01306 32.4054 9.29018 32.4054 10.0808 31.6148L10.9525 30.7431C11.7431 29.9525 11.7431 28.6754 10.9525 27.8848L10.0808 27.0131C9.29018 26.2225 8.01306 26.2225 7.22245 27.0131Z" fill="#26E1A2"/>
<path d="M26.2775 7.95756L27.1492 7.08587C27.9398 6.29527 29.2169 6.29527 30.0075 7.08587L30.8792 7.95756C31.6698 8.74816 31.6698 10.0253 30.8792 10.8159L30.0075 11.6876C29.2169 12.4782 27.9398 12.4782 27.1492 11.6876L26.2775 10.8159C25.4869 10.0253 25.4869 8.74816 26.2775 7.95756Z" fill="#26E1A2"/>
<path d="M26.2775 24.9861L27.1492 25.8577C27.9398 26.6484 29.2169 26.6484 30.0075 25.8577L30.8792 24.9861C31.6698 24.1955 31.6698 22.9183 30.8792 22.1277L30.0075 21.256C29.2169 20.4654 27.9398 20.4654 27.1492 21.256L26.2775 22.1277C25.4869 22.9183 25.4869 24.1955 26.2775 24.9861Z" fill="#26E1A2"/>
<path d="M5.19466 24.9861L4.32297 25.8577C3.53237 26.6484 2.25524 26.6484 1.46464 25.8577L0.592952 24.9861C-0.197651 24.1955 -0.197651 22.9183 0.592952 22.1277L1.46464 21.256C2.25524 20.4654 3.53237 20.4654 4.32297 21.256L5.19466 22.1277C5.98526 22.9183 5.98526 24.1955 5.19466 24.9861Z" fill="#26E1A2"/>
<path d="M5.19466 7.95756L4.32297 7.08587C3.53237 6.29527 2.25524 6.29527 1.46464 7.08587L0.592952 7.95756C-0.197651 8.74816 -0.197651 10.0253 0.592952 10.8159L1.46464 11.6876C2.25524 12.4782 3.53237 12.4782 4.32297 11.6876L5.19466 10.8159C5.98526 10.0253 5.98526 8.74816 5.19466 7.95756Z" fill="#26E1A2"/>
<path d="M39.2516 22.1074C38.2177 21.5601 37.4068 20.7897 36.819 19.8167C36.2311 18.8436 35.9473 17.7287 35.9473 16.4921C35.9473 15.2555 36.2311 14.1406 36.819 13.1675C37.4068 12.1945 38.1974 11.4241 39.2313 10.8768C40.2652 10.3295 41.4409 10.0457 42.7586 10.0457C43.9952 10.0457 45.0899 10.2889 46.0224 10.7957C46.9549 11.3025 47.6644 12.012 48.1306 12.9648L45.8602 14.2825C45.4953 13.6946 45.0493 13.2689 44.502 12.9648C43.9546 12.681 43.3668 12.5188 42.7181 12.5188C41.6234 12.5188 40.7111 12.8837 39.9814 13.5932C39.2516 14.3027 38.907 15.2555 38.907 16.4516C38.907 17.6476 39.2718 18.6004 39.9814 19.3099C40.6909 20.0194 41.6031 20.3843 42.7181 20.3843C43.3668 20.3843 43.9546 20.2424 44.502 19.9383C45.0493 19.6545 45.4953 19.2085 45.8602 18.6206L48.1306 19.9383C47.6441 20.8708 46.9346 21.6006 46.0021 22.1277C45.0696 22.6345 43.9952 22.898 42.7586 22.898C41.4612 22.9183 40.2854 22.6547 39.2516 22.1074Z" fill="#333132"/>
<path d="M50.5635 5.28174H53.5029V22.7561H50.5635V5.28174V5.28174Z" fill="#333132"/>
<path d="M69.1529 17.4043H59.2805C59.4629 18.3368 59.9089 19.0666 60.6387 19.614C61.3685 20.1613 62.2807 20.4248 63.3551 20.4248C64.7336 20.4248 65.8688 19.9789 66.7811 19.0666L68.3623 20.8708C67.7947 21.5398 67.0851 22.0669 66.2134 22.4115C65.3418 22.7561 64.3687 22.9385 63.2943 22.9385C61.9158 22.9385 60.6995 22.6547 59.6454 22.1074C58.5912 21.5601 57.7804 20.7897 57.2127 19.8167C56.6451 18.8436 56.3613 17.7287 56.3613 16.4921C56.3613 15.2758 56.6451 14.1608 57.1925 13.1878C57.7398 12.2147 58.5304 11.4444 59.5035 10.8971C60.4968 10.3497 61.6117 10.0659 62.8483 10.0659C64.0646 10.0659 65.1593 10.3295 66.1324 10.8768C67.1054 11.4241 67.8555 12.1742 68.4028 13.1675C68.9501 14.1406 69.2137 15.2758 69.2137 16.5732C69.1934 16.7354 69.1731 17.0394 69.1529 17.4043ZM60.436 13.2283C59.7873 13.7959 59.3818 14.5257 59.2399 15.4582H66.3756C66.254 14.546 65.8688 13.8162 65.2201 13.2486C64.5714 12.681 63.7808 12.3972 62.8078 12.3972C61.8955 12.3972 61.1049 12.681 60.436 13.2283Z" fill="#333132"/>
<path d="M83.5656 10.1875L78.1733 22.7763H75.1325L69.7402 10.1875H72.8013L76.7137 19.5126L80.7478 10.1875H83.5656V10.1875Z" fill="#333132"/>
<path d="M96.8443 17.4043H86.9719C87.1543 18.3368 87.6003 19.0666 88.3301 19.614C89.0599 20.1613 89.9721 20.4248 91.0465 20.4248C92.425 20.4248 93.5602 19.9789 94.4725 19.0666L96.0537 20.8708C95.4861 21.5398 94.7765 22.0669 93.9049 22.4115C93.0332 22.7561 92.0601 22.9385 90.9857 22.9385C89.6072 22.9385 88.3909 22.6547 87.3368 22.1074C86.2826 21.5601 85.4718 20.7897 84.9041 19.8167C84.3365 18.8436 84.0527 17.7287 84.0527 16.4921C84.0527 15.2758 84.3365 14.1608 84.8839 13.1878C85.4312 12.2147 86.2218 11.4444 87.1949 10.8971C88.1882 10.3497 89.3031 10.0659 90.5397 10.0659C91.756 10.0659 92.8507 10.3295 93.8238 10.8768C94.7968 11.4241 95.5469 12.1742 96.0942 13.1675C96.6416 14.1406 96.9051 15.2758 96.9051 16.5732C96.8848 16.7354 96.8645 17.0394 96.8443 17.4043ZM88.1274 13.2283C87.4787 13.7959 87.0732 14.5257 86.9313 15.4582H94.067C93.9454 14.546 93.5602 13.8162 92.9115 13.2486C92.2628 12.681 91.4722 12.3972 90.4992 12.3972C89.5869 12.3972 88.7761 12.681 88.1274 13.2283Z" fill="#333132"/>
<path d="M107 10.0457V12.8432C106.757 12.8026 106.513 12.7824 106.311 12.7824C105.155 12.7824 104.263 13.1067 103.615 13.7757C102.966 14.4446 102.642 15.3974 102.642 16.6543V22.7561H99.7021V10.1876H102.5V12.0323C103.371 10.6944 104.851 10.0457 107 10.0457Z" fill="#333132"/>
</svg>
