<svg width="125" height="22" viewBox="0 0 125 22" fill="none" xmlns="http://www.w3.org/2000/svg">
<path d="M0 11C0 17.2946 4.95008 22 11.489 22C13.8131 22 15.8261 21.4971 17.5711 20.2602V16.1507C15.8652 17.2514 13.5933 17.9634 11.451 17.9634C7.30619 17.9634 4.21182 15.0616 4.21182 11C4.21182 6.93821 7.30619 4.03686 11.451 4.03686C13.5933 4.03686 15.8652 4.74882 17.5711 5.84957V1.73976C15.8261 0.50315 13.8131 0 11.489 0C4.95008 0 0 4.7056 0 11ZM98.5479 5.37318C93.867 5.37318 90.0707 9.1045 90.0707 13.6866C90.0707 18.2687 93.8672 22 98.5479 22C103.228 22 107.025 18.2689 107.025 13.6866C107.025 9.10427 103.228 5.37318 98.5479 5.37318V5.37318ZM98.5479 18.5962C95.8311 18.5962 93.671 16.4034 93.671 13.6866C93.671 10.9703 95.8311 8.77722 98.5479 8.77722C101.264 8.77722 103.424 10.9703 103.424 13.6866C103.424 16.4034 101.264 18.5962 98.5479 18.5962ZM120.515 5.70069L113.478 16.0438V5.70069H109.934V21.673H113.534L120.567 11.3625V21.673H124.167V5.70069H120.515ZM33.7314 13.2614C34.6151 12.7375 35.4661 11.5265 35.4661 10.1847C35.4661 7.59916 33.5025 5.70069 30.8186 5.70069H21.8312V21.6725H31.1781C33.8622 21.6725 35.8915 19.7415 35.8915 17.0909C35.8917 15.2907 34.8116 13.8506 33.7314 13.2614ZM25.4315 8.84286H30.2622C31.1781 8.84286 31.8656 9.49718 31.8656 10.3809C31.8656 11.2646 31.1781 11.9196 30.2622 11.9196H25.4315V8.84286V8.84286ZM30.4911 18.531H25.4315V15.0616H30.4911C31.5386 15.0616 32.291 15.8138 32.291 16.7961C32.291 17.7779 31.5386 18.531 30.4911 18.531ZM44.6532 5.70092C41.4783 5.70092 39.0888 8.08996 39.0888 11.1994C39.0888 13.7227 40.698 15.7811 43.028 16.4404L38.6639 21.673H43.3116L47.4882 16.6652H49.4852V21.673H53.0855V5.70092H44.6532V5.70092ZM45.144 8.84286H49.4852V13.5233H45.144C43.7043 13.5233 42.6895 12.4431 42.6895 11.1997C42.6893 9.89033 43.7043 8.84286 45.144 8.84286ZM76.5282 5.70069H72.9279V21.673H76.5282V15.1924H83.5608V21.673H87.1611V5.70069H83.5608V12.0504H76.5282V5.70069ZM56.6439 20.7421V17.2089C58.0493 17.9451 59.7676 18.5962 61.7319 18.5962C64.1196 18.5962 65.6263 17.8833 65.6263 16.6156C65.6263 15.4842 64.3099 15.0504 62.6339 15.0504H59.8867V11.9084H62.6339C64.3408 11.9084 65.2967 11.2818 65.2967 10.4241C65.2967 9.16625 63.7882 8.77745 62.0443 8.77745C60.0288 8.77745 58.3926 9.36156 57.0565 10.012V6.58692C58.4425 5.90446 60.2785 5.37318 62.5642 5.37318C66.0496 5.37318 68.8821 7.22706 68.8821 9.78306C68.8821 11.6461 67.7905 12.7924 66.9137 13.1786C68.0384 13.7092 69.3098 15.0316 69.3098 16.9429C69.3098 19.9394 66.4327 21.9998 62.2218 21.9998C59.8058 22 58.0377 21.4774 56.6439 20.7421" fill="#4C1E87"/>
<path d="M116.752 4.83678C119.519 4.83678 121.629 3.12561 121.858 0.615352L118.973 0.255371C118.973 1.34057 117.989 2.17374 116.752 2.17374C115.515 2.17374 114.531 1.34057 114.531 0.255371L111.646 0.615352C111.875 3.12561 113.986 4.83678 116.752 4.83678" fill="#E41D94"/>
</svg>
