<svg width="42" height="29" viewBox="0 0 42 29" fill="none" xmlns="http://www.w3.org/2000/svg">
<path d="M42 5C42 2.23857 39.7614 -1.95703e-07 37 -4.37114e-07L5 -3.23464e-06C2.23858 -3.47605e-06 3.61899e-06 2.23857 3.37758e-06 5L1.71655e-06 24C1.47514e-06 26.7614 2.23858 29 5 29L37 29C39.7614 29 42 26.7614 42 24L42 5Z" fill="#BEBEBE"/>
<path d="M42 7.05408L0 7.05407L-4.07973e-07 11.7568L42 11.7568L42 7.05408Z" fill="#989898"/>
<path d="M34.2227 14.1082L26.4449 14.1082L26.4449 18.8109L34.2227 18.8109L34.2227 14.1082Z" fill="#FF0000"/>
</svg>
