<svg width="15" height="7" viewBox="0 0 15 7" fill="none" xmlns="http://www.w3.org/2000/svg">
<path fill-rule="evenodd" clip-rule="evenodd" d="M7.5 3.53703C10.126 3.53703 12.4495 2.14289 13.8853 3.80615e-06L15 0.917669C14.381 1.84158 13.6221 2.64662 12.7576 3.29591L13.8288 5.35256L12.6264 6.12211L11.5533 4.0619C10.525 4.60728 9.39099 4.95159 8.19432 5.0482V7H6.80579V5.04821C5.66179 4.95587 4.57503 4.63715 3.58324 4.13279L2.54706 6.12211L1.34456 5.35256L2.36765 3.38836C1.4511 2.72366 0.648768 1.88593 0 0.917665L1.11472 0C2.55052 2.14288 4.874 3.53703 7.5 3.53703Z" fill="#707070"/>
</svg>
