<svg width="15" height="8" viewBox="0 0 15 8" fill="none" xmlns="http://www.w3.org/2000/svg">
<path fill-rule="evenodd" clip-rule="evenodd" d="M7.5 6.25C5.16228 6.25 3.07413 5.27761 1.68293 3.75C3.07413 2.22239 5.16228 1.25 7.5 1.25C9.83772 1.25 11.9259 2.22239 13.3171 3.75C11.9259 5.27761 9.83772 6.25 7.5 6.25ZM7.5 0C4.54283 0 1.91865 1.329 0.295324 3.37735L0 3.75L0.295324 4.12265C1.91865 6.171 4.54283 7.5 7.5 7.5C10.4572 7.5 13.0813 6.171 14.7047 4.12265L15 3.75L14.7047 3.37736C13.0813 1.329 10.4572 0 7.5 0ZM7.49999 5.625C8.60499 5.625 9.50076 4.78553 9.50076 3.75C9.50076 2.71447 8.60499 1.875 7.49999 1.875C6.39499 1.875 5.49921 2.71447 5.49921 3.75C5.49921 4.78553 6.39499 5.625 7.49999 5.625Z" fill="#707070"/>
</svg>
