<svg width="13" height="16" viewBox="0 0 13 16" fill="none" xmlns="http://www.w3.org/2000/svg">
<path d="M12.9849 4.34121L12.9844 4.32876C12.9777 4.17507 12.9733 4.01247 12.9706 3.83157C12.9582 2.94937 12.289 2.21963 11.4472 2.17031C9.69196 2.06765 8.33413 1.4678 7.17396 0.282623L7.16406 0.272735C6.78564 -0.0909117 6.21481 -0.0909117 5.83628 0.272735L5.82638 0.282623C4.6662 1.4678 3.30838 2.06765 1.55315 2.17044C0.711404 2.21963 0.0421573 2.94937 0.0296949 3.83169C0.0271325 4.01138 0.0225901 4.17397 0.0159512 4.32876L0.0152524 4.35769C-0.0188738 6.23354 -0.0612696 8.56813 0.683917 10.6871C1.09366 11.8524 1.71423 12.8654 2.52825 13.698C3.45536 14.6462 4.6697 15.399 6.13748 15.9354C6.18523 15.9529 6.23485 15.967 6.28539 15.9777C6.35668 15.9926 6.42842 16 6.50017 16C6.57191 16 6.64378 15.9926 6.71494 15.9777C6.76549 15.967 6.81546 15.9528 6.86344 15.9352C8.32947 15.3978 9.54253 14.6447 10.4688 13.6965C11.2825 12.8637 11.9031 11.8505 12.3132 10.6849C13.0611 8.55958 13.0189 6.2206 12.9849 4.34121Z" fill="#707070"/>
<path fill-rule="evenodd" clip-rule="evenodd" d="M5.73318 9.20513L3.93337 7.47437L3 8.3718L5.73318 11L10 6.89743L9.06663 6L5.73318 9.20513Z" fill="white"/>
</svg>
