<svg width="13" height="16" viewBox="0 0 13 16" fill="none" xmlns="http://www.w3.org/2000/svg">
<path fill-rule="evenodd" clip-rule="evenodd" d="M10.7068 6.37122H12.1549C12.6209 6.37122 13 6.67249 13 7.04273V15.3285C13 15.6987 12.6209 16 12.1549 16H0.845131C0.379096 16 0 15.6987 0 15.3285V7.04273C0 6.67249 0.379096 6.37122 0.845131 6.37122H2.29915V3.34082C2.29915 1.49866 4.18495 0 6.503 0C8.82104 0 10.7068 1.49866 10.7068 3.34082V6.37122ZM6.50008 2.60718C6.01377 2.60718 5.61823 2.92151 5.61823 3.30786V6.37122H7.38177V3.30786C7.38177 2.92151 6.98623 2.60718 6.50008 2.60718Z" fill="#707070"/>
<path fill-rule="evenodd" clip-rule="evenodd" d="M5.73318 12.2051L3.93337 10.4744L3 11.3718L5.73318 14L10 9.89743L9.06663 9L5.73318 12.2051Z" fill="white"/>
</svg>
