<svg width="84" height="32" viewBox="0 0 84 32" fill="none" xmlns="http://www.w3.org/2000/svg">
<path d="M57.0886 18.171L57.9182 18.4219C57.8729 18.6327 57.7834 18.8315 57.6554 19.0051C57.5398 19.1581 57.3875 19.2797 57.2126 19.3586C56.9972 19.4451 56.7662 19.4855 56.5342 19.4774C56.2547 19.4867 55.9765 19.4363 55.7179 19.3298C55.4893 19.217 55.2991 19.0394 55.171 18.819C55.0184 18.573 54.9419 18.261 54.9414 17.8831C54.9414 17.3758 55.0762 16.9861 55.3459 16.714C55.6155 16.4418 55.9969 16.3058 56.49 16.3058C56.8762 16.3058 57.1798 16.3838 57.4008 16.5398C57.6217 16.6958 57.7858 16.9356 57.8931 17.2594L57.0561 17.4484C57.0364 17.3755 57.0052 17.3063 56.9638 17.2432C56.9135 17.1726 56.8469 17.1151 56.7697 17.0756C56.6899 17.0363 56.6019 17.0163 56.5128 17.0173C56.415 17.0133 56.3179 17.0351 56.2312 17.0806C56.1445 17.126 56.0713 17.1936 56.019 17.2764C55.9327 17.4041 55.8899 17.6056 55.8899 17.8794C55.8899 18.2197 55.9408 18.4522 56.0441 18.5784C56.1531 18.6927 56.3021 18.7602 56.4598 18.767C56.6175 18.7737 56.7717 18.7191 56.89 18.6146C56.9935 18.4864 57.0619 18.3336 57.0886 18.171Z" fill="#C5CAD0"/>
<path d="M58.259 17.8954C58.259 17.395 58.3982 17.0055 58.6767 16.727C58.9553 16.4485 59.3435 16.3102 59.8415 16.3122C60.3518 16.3122 60.7454 16.4492 61.0224 16.7233C61.2995 16.9974 61.4375 17.3809 61.4365 17.874C61.4365 18.2317 61.3763 18.5253 61.2557 18.7546C61.1386 18.9809 60.9566 19.1673 60.7331 19.2897C60.4703 19.4254 60.177 19.4912 59.8813 19.4809C59.5865 19.4911 59.2931 19.4349 59.0229 19.3163C58.7911 19.2012 58.5993 19.0191 58.4723 18.7937C58.3213 18.519 58.2475 18.2086 58.259 17.8954ZM59.206 17.8991C59.206 18.2084 59.2635 18.4313 59.3787 18.5634C59.4393 18.627 59.5122 18.6777 59.5929 18.7125C59.6736 18.7473 59.7605 18.7654 59.8484 18.7657C59.9363 18.766 60.0234 18.7486 60.1044 18.7145C60.1854 18.6804 60.2586 18.6302 60.3198 18.5671C60.431 18.4352 60.4868 18.1978 60.4873 17.8548C60.4873 17.566 60.429 17.3551 60.3124 17.2222C60.2534 17.1558 60.1803 17.1035 60.0984 17.069C60.0165 17.0345 59.928 17.0188 59.8393 17.023C59.7523 17.0197 59.6657 17.0362 59.5861 17.0712C59.5064 17.1062 59.4358 17.1589 59.3794 17.2252C59.2638 17.3625 59.206 17.5871 59.206 17.8991Z" fill="#C5CAD0"/>
<path d="M61.9336 16.3607H63.1817L63.6622 18.2252L64.1383 16.3607H65.3835V19.4253H64.6048V17.0878L64.0069 19.4253H63.305L62.7086 17.0878V19.4253H61.9336V16.3607Z" fill="#C5CAD0"/>
<path d="M65.9805 16.361H67.5549C67.8993 16.361 68.1562 16.4424 68.3254 16.6053C68.4947 16.7682 68.5801 17.0002 68.5816 17.3013C68.5816 17.6103 68.4883 17.8522 68.3018 18.0269C68.1153 18.2016 67.8314 18.2887 67.45 18.2882H66.9334V19.4256H65.9805V16.361ZM66.9319 17.6674H67.1637C67.3467 17.6674 67.4744 17.6357 67.549 17.5722C67.5846 17.5426 67.6131 17.5053 67.6322 17.4631C67.6514 17.4209 67.6608 17.3749 67.6597 17.3286C67.6606 17.2835 67.6525 17.2387 67.6359 17.1967C67.6193 17.1548 67.5945 17.1166 67.563 17.0843C67.4995 17.0171 67.3785 16.9839 67.2013 16.9839H66.9319V17.6674Z" fill="#C5CAD0"/>
<path d="M69.0762 16.3607H70.0232V18.674H71.4994V19.429H69.0762V16.3607Z" fill="#C5CAD0"/>
<path d="M71.9697 16.3608H72.9189V19.4255H71.9697V16.3608Z" fill="#C5CAD0"/>
<path d="M75.4817 18.9191H74.4063L74.2587 19.4255H73.2939L74.4461 16.3608H75.4795L76.6309 19.4255H75.6397L75.4817 18.9191ZM75.2854 18.2548L74.9473 17.1528L74.6122 18.2548H75.2854Z" fill="#C5CAD0"/>
<path d="M76.9341 16.361H77.8198L78.9742 18.0586V16.361H79.8636V19.4256H78.9713L77.8235 17.7427V19.4256H76.9326L76.9341 16.361Z" fill="#C5CAD0"/>
<path d="M80.2793 16.3608H83.1579V17.1174H82.1925V19.4255H81.2455V17.1174H80.28L80.2793 16.3608Z" fill="#C5CAD0"/>
<path fill-rule="evenodd" clip-rule="evenodd" d="M48.4311 20.1718L45.689 21.0361C46.2308 20.0648 46.881 19.0107 47.5453 18.1937L48.4311 20.1718ZM39.3737 0L44.7523 11.9825C44.1425 12.8218 42.3165 15.3457 40.596 17.8244V9.87799H35.7097V20.5422C35.0344 20.0848 34.3247 19.7636 33.6415 19.6488V19.1169C33.6415 19.0763 33.6149 19.0615 33.5795 19.0829C33.5795 19.0829 33.0525 19.5066 30.7341 19.7332C30.0772 19.807 29.7649 19.7723 29.528 19.7332C26.2412 19.1804 26.0847 16.7719 26.0847 16.7719C26.0803 16.7321 26.0766 16.6664 26.0766 16.6243V15.7017C26.0768 15.6523 26.08 15.603 26.0862 15.554C26.0862 15.554 26.3076 12.9744 29.5288 12.702H30.7341C31.6375 12.8389 32.5074 13.1433 33.299 13.5995C33.3337 13.6202 33.3625 13.6032 33.3625 13.5626V10.3334C33.3615 10.3112 33.3551 10.2897 33.3438 10.2706C33.3324 10.2515 33.3165 10.2356 33.2975 10.2242C33.2975 10.2242 32.6576 9.80639 30.7023 9.6905C30.5983 9.63219 28.8969 9.62407 28.4253 9.6905C21.3232 10.2596 21.0604 15.3976 21.0604 15.6323V16.8804C21.0604 17.034 21.0604 22.2871 28.4253 22.7528C29.009 22.7972 30.0483 22.7695 30.4979 22.7575H30.498L30.4982 22.7575C30.6021 22.7548 30.6745 22.7528 30.7023 22.7528L30.7366 22.7528C30.894 23.6116 31.319 24.5321 31.907 25.3814L10.9085 32L0 2.23573L39.3737 0ZM41.1355 5.84275C41.1355 7.39721 39.7995 8.65716 38.1514 8.65716C36.5032 8.65716 35.1672 7.39721 35.1672 5.84275C35.1672 4.28829 36.5032 3.02612 38.1514 3.02612C39.7995 3.02612 41.1355 4.28829 41.1355 5.84275ZM7.53627 22.6306C7.52242 22.6167 7.51465 22.5979 7.51465 22.5784L7.51686 9.94489C7.51686 9.92531 7.52464 9.90654 7.53848 9.89269C7.55232 9.87885 7.5711 9.87107 7.59067 9.87107H13.7539C15.3224 9.79726 20.0861 10.2387 20.0861 14.2606C20.0861 19.358 12.4932 18.8088 12.4932 18.8088C12.4837 18.808 12.4742 18.8092 12.4652 18.8123C12.4562 18.8154 12.448 18.8203 12.441 18.8268C12.4341 18.8332 12.4286 18.8411 12.4248 18.8498C12.4211 18.8586 12.4192 18.868 12.4194 18.8775V22.5784C12.4194 22.5979 12.4116 22.6167 12.3978 22.6306C12.3839 22.6444 12.3652 22.6522 12.3456 22.6522H7.58846C7.56888 22.6522 7.55011 22.6444 7.53627 22.6306ZM12.3338 12.6486V15.9826H13.6336C13.6336 15.9826 15.1009 15.9162 15.3224 14.561C15.346 14.53 15.3534 13.9661 15.3224 13.8761C15.1902 12.7224 13.4978 12.6486 13.4978 12.6486H12.3338Z" fill="#C5CAD0"/>
<path d="M38.2858 28.7862C38.6829 28.7862 38.9863 28.7862 39.4882 28.5648C41.222 27.6532 47.0583 13.4003 53.2171 9.01667C53.2611 8.98567 53.3004 8.94836 53.3337 8.90595C53.3579 8.87153 53.3724 8.83126 53.3757 8.78933C53.3757 8.78933 53.3757 8.49409 52.4634 8.49409C46.983 8.34646 41.2848 19.8329 38.2917 24.3782C38.2541 24.4277 38.0482 24.3782 38.0482 24.3782C38.0482 24.3782 36.0405 22.0096 34.2971 21.101C34.1558 21.0482 34.0047 21.0263 33.8542 21.0368C33.7162 21.0368 32.905 21.1999 32.5256 21.5992C32.0791 22.0701 32.0879 22.3373 32.0916 22.9086C32.1 23.0236 32.129 23.1361 32.1772 23.2408C32.6039 23.9863 34.5517 26.6641 36.1475 28.1418C36.3889 28.316 36.7675 28.7862 38.2858 28.7862Z" fill="#C5CAD0"/>
<path d="M54.832 4.69409H59.3921C60.2911 4.69409 61.0171 4.81711 61.5702 5.06315C62.1075 5.29435 62.5789 5.65524 62.9424 6.11348C63.3114 6.58431 63.579 7.12636 63.7285 7.70558C63.894 8.33349 63.9762 8.98047 63.9728 9.62983C63.9728 10.6912 63.8517 11.5145 63.6096 12.0995C63.3869 12.6579 63.0433 13.16 62.6036 13.5699C62.215 13.9426 61.7403 14.2136 61.2218 14.3589C60.6263 14.5287 60.0112 14.62 59.3921 14.6305H54.832V4.69409ZM57.9018 6.94385V12.3712H58.654C59.2937 12.3712 59.7498 12.3001 60.0224 12.1579C60.295 12.0156 60.5074 11.7671 60.6594 11.4124C60.8129 11.0581 60.8897 10.4833 60.8897 9.68814C60.8897 8.6356 60.7175 7.91496 60.373 7.52622C60.0286 7.13748 59.4595 6.94336 58.6658 6.94385H57.9018Z" fill="#C5CAD0"/>
<path d="M64.8145 11.3418L67.7344 11.1588C67.7979 11.6327 67.9266 11.9938 68.1204 12.2423C68.4373 12.6444 68.8891 12.8454 69.4756 12.8454C69.9141 12.8454 70.2519 12.7428 70.489 12.5376C70.7262 12.3324 70.8448 12.094 70.8448 11.8224C70.8448 11.5648 70.7311 11.3345 70.506 11.1315C70.2809 10.9285 69.7561 10.7366 68.9338 10.5558C67.5875 10.2531 66.628 9.85111 66.0552 9.34969C65.7757 9.11556 65.5526 8.82144 65.4024 8.48918C65.2523 8.15693 65.179 7.7951 65.1879 7.4306C65.189 6.91515 65.3432 6.41164 65.6308 5.98391C65.926 5.52972 66.3709 5.17297 66.9653 4.91365C67.5597 4.65433 68.3739 4.52442 69.4077 4.52393C70.6773 4.52393 71.6452 4.75987 72.3114 5.23177C72.9777 5.70367 73.3741 6.45457 73.5005 7.48448L70.6071 7.65425C70.5289 7.20794 70.3668 6.88317 70.1207 6.67994C69.8747 6.47672 69.5347 6.3751 69.1007 6.3751C68.7439 6.3751 68.4752 6.45064 68.2946 6.6017C68.2102 6.6668 68.1418 6.75044 68.0948 6.84618C68.0479 6.94192 68.0235 7.04717 68.0238 7.15381C68.0261 7.23713 68.0472 7.31885 68.0855 7.39286C68.1239 7.46686 68.1785 7.53124 68.2452 7.58118C68.3894 7.71207 68.7338 7.83508 69.2785 7.95023C70.6204 8.23858 71.5814 8.53088 72.1616 8.8271C72.7418 9.12333 73.1642 9.49042 73.4289 9.92836C73.6947 10.3723 73.8319 10.8813 73.8253 11.3987C73.8269 12.0247 73.6422 12.637 73.2946 13.1576C72.9337 13.7018 72.4202 14.1272 71.8184 14.3806C71.1866 14.6582 70.3894 14.7969 69.4269 14.7969C67.7376 14.7969 66.5677 14.4717 65.9172 13.8212C65.2667 13.1706 64.8991 12.3442 64.8145 11.3418Z" fill="#C5CAD0"/>
<path d="M74.5986 11.3418L77.5186 11.1588C77.5821 11.6327 77.711 11.9938 77.9054 12.2423C78.2213 12.6444 78.673 12.8454 79.2605 12.8454C79.698 12.8454 80.0356 12.7428 80.2732 12.5376C80.5109 12.3324 80.6295 12.094 80.629 11.8224C80.629 11.565 80.5161 11.3347 80.2902 11.1315C80.0643 10.9283 79.5403 10.7363 78.718 10.5558C77.3717 10.2531 76.4122 9.85111 75.8394 9.34969C75.5599 9.11556 75.3368 8.82144 75.1866 8.48918C75.0364 8.15693 74.9631 7.7951 74.9721 7.4306C74.9732 6.91515 75.1274 6.41164 75.415 5.98391C75.7102 5.52972 76.1551 5.17297 76.7495 4.91365C77.3439 4.65433 78.1583 4.52442 79.1926 4.52393C80.4612 4.52393 81.4289 4.75987 82.0956 5.23177C82.7624 5.70367 83.1587 6.45457 83.2847 7.48448L80.3921 7.65425C80.3143 7.20695 80.1527 6.88169 79.9071 6.67847C79.6616 6.47524 79.3218 6.37363 78.8878 6.37363C78.5305 6.37363 78.2616 6.44916 78.081 6.60023C77.9966 6.66532 77.9282 6.74897 77.8812 6.8447C77.8343 6.94044 77.8099 7.0457 77.8102 7.15233C77.8125 7.23565 77.8336 7.31737 77.8719 7.39138C77.9103 7.46539 77.9648 7.52976 78.0316 7.5797C78.1763 7.71059 78.5207 7.83361 79.0649 7.94875C80.4068 8.23711 81.3678 8.5294 81.948 8.82563C82.5281 9.12186 82.9506 9.48894 83.2153 9.92689C83.4811 10.3708 83.6183 10.8798 83.6117 11.3972C83.6145 12.024 83.4306 12.6374 83.0832 13.1591C82.7224 13.7033 82.2088 14.1288 81.607 14.3821C80.9747 14.6596 80.1773 14.7984 79.2148 14.7984C77.525 14.7984 76.3551 14.4732 75.7051 13.8226C75.055 13.1721 74.6862 12.3452 74.5986 11.3418Z" fill="#C5CAD0"/>
</svg>
