<svg width="91" height="32" viewBox="0 0 91 32" fill="none" xmlns="http://www.w3.org/2000/svg">
<path d="M8.32974 20.6336C7.80687 20.2833 7.09866 19.9774 6.09827 19.9774C5.01813 19.9774 4.14898 20.2014 4.14898 21.3511C4.14898 23.3799 8.08735 22.6226 8.08735 26.9675C8.08735 30.9261 5.48764 31.9523 3.13653 31.9523C2.09042 31.9523 0.88725 31.606 0 31.2123L0.638544 28.3029C1.17348 28.7898 2.25362 29.1225 3.13653 29.1225C3.97815 29.1225 5.29672 28.8931 5.29672 27.4239C5.29672 25.1246 1.36062 25.9798 1.36062 21.9436C1.36062 18.2521 3.65987 17.1461 5.87766 17.1461C7.12656 17.1461 8.30004 17.3293 8.98817 17.7866L8.32983 20.6336H8.32974Z" fill="#C5CAD0"/>
<path d="M16.2385 31.463C15.3295 31.777 14.4444 31.9283 13.5016 31.9283C10.5181 31.9283 8.96094 30.1688 8.96094 26.8125C8.96094 22.8929 10.942 20.001 13.6309 20.001C15.8329 20.001 17.2371 21.6171 17.2371 24.1555C17.2371 24.9948 17.1416 25.8167 16.9128 26.9745H11.5884C11.5722 27.1455 11.5665 27.2301 11.5665 27.3296C11.5665 28.6609 12.3641 29.3335 13.9135 29.3335C14.8681 29.3335 15.7312 29.1106 16.6881 28.6094L16.2385 31.463ZM14.7449 24.6672C14.7567 24.4257 14.7647 24.2337 14.7647 24.0862C14.7647 23.1556 14.2954 22.6102 13.5016 22.6102C12.6484 22.6102 12.0418 23.3438 11.7972 24.6552L14.7449 24.6672Z" fill="#C5CAD0"/>
<path d="M24.0603 31.459C23.5093 31.7241 22.7733 31.8993 21.6875 31.8993C19.3521 31.8993 17.9043 29.5657 17.9043 26.7239C17.9043 23.0045 19.9986 20.0382 23.0815 20.0382C23.754 20.0382 24.7801 20.3286 25.5898 20.7981L24.9992 23.5258C24.4262 23.1489 23.8295 22.9102 23.215 22.9102C21.7868 22.9102 20.7664 24.2192 20.7664 26.5648C20.7664 27.9148 21.5062 29.0232 22.6759 29.0232C23.3719 29.0232 23.8614 28.8762 24.4602 28.526L24.0603 31.4591V31.459Z" fill="#C5CAD0"/>
<path d="M34.0529 28.5989C33.9156 29.5812 33.7885 30.5359 33.7129 31.561H31.1411L31.3578 29.715H31.3322C30.5266 30.9694 29.6934 31.8233 28.2375 31.8233C26.6222 31.8233 25.7471 30.1251 25.7471 27.9063C25.7471 27.1413 25.7949 26.7088 25.9659 25.5145L26.6938 20.2275H29.5561L28.788 25.5303C28.7108 26.1005 28.6012 26.6654 28.6012 27.2542C28.6012 27.9226 28.9057 28.5989 29.6771 28.5577C30.8507 28.5577 31.5431 27.1228 31.7398 25.4483L32.5296 20.2275H35.3003L34.053 28.5988L34.0529 28.5989Z" fill="#C5CAD0"/>
<path d="M41.2891 20.1164C41.2072 20.0937 41.1139 20.0842 41.0145 20.0842C40.1472 20.0842 39.638 20.5855 38.8246 21.9422L39.0614 20.2091H36.6427L35.0098 31.6325H37.6809C38.6417 24.6444 38.8964 23.4418 40.1773 23.4418C40.2525 23.4418 40.2606 23.4418 40.3719 23.4551C40.6128 22.0731 40.9369 21.0601 41.3863 20.1363L41.2891 20.1164Z" fill="#C5CAD0"/>
<path d="M48.0167 31.463C47.1055 31.777 46.2185 31.9283 45.2791 31.9283C42.2893 31.9283 40.7344 30.1688 40.7344 26.8125C40.7344 22.8929 42.717 20.001 45.4041 20.001C47.607 20.001 49.0154 21.6171 49.0154 24.1555C49.0154 24.9948 48.9157 25.8167 48.6786 26.9745H43.3657C43.3498 27.1455 43.3396 27.2301 43.3396 27.3296C43.3396 28.6609 44.1354 29.3335 45.6854 29.3335C46.6401 29.3335 47.5054 29.1106 48.462 28.6094L48.0166 31.463H48.0167ZM46.5148 24.6672C46.5327 24.4257 46.5429 24.2337 46.5429 24.0862C46.5429 23.1556 46.0697 22.6102 45.2791 22.6102C44.4254 22.6102 43.8193 23.3438 43.5725 24.6552L46.5148 24.6672Z" fill="#C5CAD0"/>
<path d="M58.9802 18.0253L58.5423 21.0685C57.5914 20.5315 56.8996 20.3086 56.1516 20.3086C54.1524 20.3086 52.7563 22.4834 52.7563 25.5743C52.7563 27.7076 53.6911 28.9991 55.2485 28.9991C55.9129 28.9991 56.6387 28.7725 57.5218 28.2752L57.0587 31.4789C56.0698 31.7837 55.4233 31.8886 54.6898 31.8886C51.8096 31.8886 50.0156 29.5601 50.0156 25.825C50.0156 20.7981 52.4919 17.2897 56.0387 17.2897C56.4976 17.2897 56.9032 17.348 57.2396 17.4406L58.3334 17.751C58.6716 17.885 58.7414 17.9091 58.9802 18.0256V18.0253Z" fill="#C5CAD0"/>
<path d="M64.4116 25.1167C64.4116 27.7061 63.6098 29.2311 62.3468 29.2311C61.4239 29.2588 60.8652 28.2314 60.8652 26.6931C60.8652 24.8753 61.6827 22.8146 62.9932 22.8146C64.0474 22.8146 64.4115 23.9312 64.4115 25.1167H64.4116ZM67.2257 25.1643C67.2257 22.2858 65.804 20.0459 63.1306 20.0459C60.0538 20.0459 58.0605 22.7699 58.0605 26.7809C58.0605 29.6517 59.2385 32.0001 62.1519 32.0001C65.0918 32.0001 67.2257 29.918 67.2257 25.1644V25.1643Z" fill="#C5CAD0"/>
<path d="M76.1855 31.5104H73.6614L73.7907 30.3953C73.0568 31.2745 72.2933 31.664 71.3164 31.664C69.3689 31.664 68.084 29.7759 68.084 26.92C68.084 23.1276 70.0793 19.9105 72.4383 19.9105C73.4785 19.9105 74.2681 20.4023 74.9983 21.4846L75.5868 17.4683H78.2163L76.1856 31.5105L76.1855 31.5104ZM72.235 28.8238C73.4942 28.8238 74.3617 27.2382 74.3617 24.9746C74.3617 23.5187 73.8661 22.7376 72.9476 22.7376C71.7322 22.7376 70.8687 24.3247 70.8687 26.5804C70.8687 28.068 71.3322 28.8238 72.235 28.8238Z" fill="#C5CAD0"/>
<path d="M85.3008 31.463C84.3775 31.777 83.5025 31.9283 82.5558 31.9283C79.5724 31.9283 78.0107 30.1688 78.0107 26.8125C78.0107 22.8929 79.9979 20.001 82.6847 20.001C84.8871 20.001 86.2889 21.6171 86.2889 24.1555C86.2889 24.9948 86.1976 25.8167 85.9612 26.9745H80.6422C80.6243 27.1455 80.6205 27.2301 80.6205 27.3296C80.6205 28.6609 81.4179 29.3335 82.9673 29.3335C83.9242 29.3335 84.7856 29.1106 85.7439 28.6094L85.3007 31.463H85.3008ZM83.7988 24.6672C83.8108 24.4257 83.8189 24.2337 83.8189 24.0862C83.8189 23.1556 83.3515 22.6102 82.5558 22.6102C81.7029 22.6102 81.0978 23.3438 80.8512 24.6552L83.7988 24.6672Z" fill="#C5CAD0"/>
<path d="M87.9673 31.4226H87.535V29.529H86.9092V29.1218H88.5934V29.529H87.9673V31.4226ZM90.8362 31.4226H90.4327V29.5002H90.4268L90.0405 31.4226H89.6167L89.2388 29.5002H89.2331V31.4226H88.83V29.1218H89.4607L89.8358 30.9359H89.8417L90.2108 29.1218H90.8362V31.4226Z" fill="#C5CAD0"/>
<path d="M12.0275 14.3369H9.1692L10.8061 3.54333L7.14844 14.3369H5.18926L4.95262 3.60697L3.22809 14.3369H0.550781L2.7847 0.290649H6.90379L7.01702 8.98241L9.79794 0.290649H14.2431L12.0275 14.3369Z" fill="#C5CAD0"/>
<path d="M19.3928 9.24898C19.0906 9.21315 18.9572 9.19976 18.7524 9.19976C17.1313 9.19976 16.3098 9.79004 16.3098 10.9436C16.3098 11.6544 16.7136 12.1078 17.3383 12.1078C18.5017 12.1078 19.3451 10.9436 19.3928 9.24898ZM21.4734 14.3369H19.1045L19.1562 13.1514C18.434 14.0967 17.4695 14.5357 16.1587 14.5357C14.6033 14.5357 13.541 13.2628 13.541 11.4237C13.541 8.63504 15.397 7.01591 18.5695 7.01591C18.8935 7.01591 19.3074 7.04118 19.7329 7.10086C19.8225 6.72299 19.8464 6.56008 19.8464 6.35955C19.8464 5.60523 19.3491 5.31872 18.0084 5.31872C17.1991 5.31872 16.2701 5.44194 15.6297 5.64492L15.232 5.76013L14.9812 5.83461L15.375 3.27251C16.8032 2.82865 17.7439 2.65735 18.804 2.65735C21.2624 2.65735 22.5651 3.81791 22.5651 6.00695C22.5651 6.57554 22.5236 6.99762 22.3287 8.27301L21.7296 12.3202L21.6323 13.0506L21.559 13.633L21.5091 14.0308L21.4733 14.337L21.4734 14.3369Z" fill="#C5CAD0"/>
<path d="M23.5137 6.52671C23.5137 7.96822 24.178 8.96511 25.6817 9.71028C26.8332 10.2834 27.0164 10.4502 27.0164 10.9703C27.0164 11.6796 26.5051 12.0083 25.3793 12.0083C24.5303 12.0083 23.7366 11.8663 22.8215 11.551L22.4258 14.1858L22.5549 14.2135L23.0803 14.3251C23.2492 14.3609 23.4978 14.3926 23.8261 14.4286C24.508 14.4923 25.0313 14.5226 25.401 14.5226C28.4027 14.5226 29.7912 13.3107 29.7912 10.7093C29.7912 9.14594 29.2121 8.22164 27.7822 7.52954C26.5886 6.96067 26.4531 6.82661 26.4531 6.29629C26.4531 5.67717 26.9269 5.3586 27.8454 5.3586C28.4067 5.3586 29.1666 5.42498 29.8924 5.52859L30.3004 2.89107C29.5542 2.76351 28.4463 2.66565 27.79 2.66565C24.6057 2.66565 23.5017 4.41865 23.5137 6.5269V6.52671Z" fill="#C5CAD0"/>
<path d="M34.7916 14.1974C34.0138 14.4559 33.3992 14.574 32.7386 14.574C31.2788 14.574 30.4814 13.6842 30.4814 12.0613C30.4814 11.7431 30.5053 11.3995 30.5629 11.0376L30.7399 9.92359L30.8713 9.01409L32.1123 1.21985H34.9566L34.6304 2.91449H36.0944L35.6927 5.69107H34.2326L33.4765 10.458C33.4509 10.6687 33.429 10.8238 33.429 10.9312C33.429 11.5161 33.7272 11.7773 34.4035 11.7773C34.7339 11.7773 34.9826 11.743 35.1732 11.6713L34.7916 14.1973V14.1974Z" fill="#C5CAD0"/>
<path d="M43.8533 14.0965C42.875 14.4042 41.9283 14.5594 40.9138 14.5552C37.7236 14.5552 36.0566 12.7998 36.0566 9.44206C36.0566 5.51755 38.1769 2.62793 41.0588 2.62793C43.4102 2.62793 44.9194 4.24715 44.9194 6.78493C44.9194 7.62551 44.818 8.44516 44.5638 9.60289H38.8751C38.8512 9.77636 38.8473 9.85612 38.8473 9.95653C38.8473 11.292 39.6984 11.9644 41.3634 11.9644C42.3837 11.9644 43.3028 11.743 44.3309 11.2376L43.8533 14.0964V14.0965ZM42.2482 7.29544C42.2644 7.05701 42.2682 6.86176 42.2682 6.71742C42.2682 5.78417 41.765 5.23915 40.9137 5.23915C40.0067 5.23915 39.3564 5.96669 39.0898 7.2878L42.2482 7.29544H42.2482Z" fill="#C5CAD0"/>
<path d="M51.9192 2.82039C51.8294 2.80286 51.7299 2.79126 51.6267 2.79126C50.6841 2.79126 50.1507 3.28999 49.2758 4.65033L49.5303 2.91467H46.9388L45.1816 14.3367H48.0566C49.0847 7.35535 49.3474 6.15019 50.726 6.15019C50.8093 6.15019 50.817 6.15019 50.9343 6.16217C51.1892 4.78562 51.5372 3.77392 52.0166 2.85103L51.9193 2.82049L51.9192 2.82039Z" fill="#C5CAD0"/>
<path d="M61.4152 0.731785L60.9478 3.77913C59.9316 3.23807 59.1837 3.02594 58.3861 3.02594C56.256 3.02594 54.7503 5.19113 54.7503 8.28241C54.7503 10.4171 55.7608 11.7035 57.4232 11.7035C58.1294 11.7035 58.9051 11.4765 59.8539 10.9793L59.3546 14.1855C58.3046 14.4881 57.6202 14.5953 56.8265 14.5953C53.7417 14.5953 51.8223 12.2682 51.8223 8.53281C51.8223 3.50884 54.4735 0 58.2667 0C58.7558 0 59.1935 0.0477989 59.5495 0.15141L60.7289 0.460359C61.0787 0.599419 61.1584 0.62082 61.4151 0.731785H61.4152Z" fill="#C5CAD0"/>
<path d="M66.344 9.24886C66.0459 9.21303 65.9083 9.19964 65.7077 9.19964C64.0805 9.19964 63.257 9.78992 63.257 10.9435C63.257 11.6543 63.6648 12.1076 64.2894 12.1076C65.4588 12.1076 66.2921 10.9435 66.344 9.24886ZM68.4264 14.3368H66.0533L66.1091 13.1513C65.3874 14.0966 64.4207 14.5356 63.1115 14.5356C61.5563 14.5356 60.4902 13.2626 60.4902 11.4236C60.4902 8.63492 62.3443 7.01579 65.5223 7.01579C65.8447 7.01579 66.2625 7.04106 66.6861 7.10073C66.7735 6.72287 66.7995 6.55996 66.7995 6.35943C66.7995 5.60511 66.3023 5.3186 64.9616 5.3186C64.1479 5.3186 63.2216 5.44182 62.5866 5.6448L62.1789 5.76001L61.9324 5.83449L62.33 3.27239C63.7602 2.82853 64.6993 2.65723 65.7513 2.65723C68.214 2.65723 69.5164 3.81779 69.5164 6.00683C69.5164 6.57542 69.4668 6.9975 69.2817 8.27289L68.6788 12.3201L68.5897 13.0505L68.5099 13.6329L68.4582 14.0306L68.4263 14.3368L68.4264 14.3368Z" fill="#C5CAD0"/>
<path d="M76.4183 2.82051C76.3326 2.80298 76.2392 2.79138 76.1299 2.79138C75.1913 2.79138 74.654 3.29011 73.7747 4.65045L74.0297 2.91479H71.442L69.6914 14.3368H72.5576C73.5861 7.35547 73.8564 6.15032 75.2247 6.15032C75.3145 6.15032 75.3086 6.14211 75.4259 6.16229C75.6843 4.78574 76.0344 3.77404 76.5158 2.85115L76.4182 2.82061L76.4183 2.82051Z" fill="#C5CAD0"/>
<path d="M84.2034 14.3368H81.4964L81.6375 13.2177C80.8498 14.1021 80.0401 14.488 78.9944 14.488C76.9019 14.488 75.5312 12.6021 75.5312 9.74604C75.5312 5.9473 77.6617 2.73977 80.1919 2.73977C81.3036 2.73977 82.1447 3.22087 82.9365 4.30309L83.5591 0.290527H86.3796L84.2035 14.3368H84.2034ZM79.9804 11.6475C81.3174 11.6475 82.2521 10.0604 82.2521 7.79967C82.2521 6.3476 81.7194 5.55755 80.7306 5.55755C79.4341 5.55755 78.513 7.15113 78.513 9.39853C78.513 10.8944 79.0081 11.6475 79.9804 11.6475Z" fill="#C5CAD0"/>
<path d="M85.8633 12.6808C85.8633 11.6874 86.6334 10.8839 87.5738 10.8839C88.5187 10.8839 89.2808 11.6874 89.2808 12.6808C89.2808 13.6753 88.5187 14.4788 87.5738 14.4788C86.6334 14.4788 85.8633 13.6752 85.8633 12.6808ZM87.5738 14.0533C88.2919 14.0533 88.8787 13.4367 88.8787 12.6808C88.8787 11.9288 88.2919 11.3177 87.5738 11.3177C86.8577 11.3177 86.2689 11.9289 86.2689 12.6808C86.2689 13.4367 86.8577 14.0533 87.5738 14.0533ZM87.3409 13.4684H86.9911V11.8852H87.6257C87.7549 11.8852 87.9 11.893 88.0113 11.9726C88.1327 12.0616 88.2023 12.2113 88.2023 12.3704C88.2023 12.5454 88.1029 12.7099 87.9438 12.7696L88.2181 13.4684H87.8287L87.5976 12.8478H87.3409V13.4684ZM87.3409 12.5787H87.5362C87.6078 12.5787 87.6914 12.5815 87.7512 12.5454C87.8108 12.5071 87.8365 12.43 87.8365 12.3625C87.8365 12.3029 87.8028 12.231 87.7512 12.2034C87.6992 12.1675 87.5938 12.1754 87.5324 12.1754H87.341V12.5786L87.3409 12.5787Z" fill="#C5CAD0"/>
</svg>
