<svg width="75" height="32" viewBox="0 0 75 32" fill="none" xmlns="http://www.w3.org/2000/svg">
<path d="M55.8476 26.5657C56.1633 25.7198 57.3601 22.4493 57.3601 22.4493C57.3384 22.4907 57.6723 21.5991 57.8649 21.0479L58.1194 22.3179C58.1194 22.3179 58.8489 25.8282 59.0015 26.5657C58.4104 26.5657 56.5887 26.5657 55.8476 26.5657ZM60.5325 17.0791H57.5971C56.6868 17.0791 56.0071 17.3387 55.604 18.3016L49.9612 31.788H53.9533C53.9533 31.788 54.6053 29.9715 54.7532 29.5751C55.1894 29.5751 59.0656 29.5846 59.6176 29.5846C59.7353 30.0981 60.0796 31.788 60.0796 31.788H63.6096L60.5325 17.0791ZM50.7866 17.4283C50.037 17.1307 48.8521 16.8086 47.3813 16.8086C43.6199 16.8086 40.9828 18.8062 40.957 21.6662C40.9342 23.7808 42.8458 24.962 44.2837 25.6659C45.7673 26.385 46.2629 26.8471 46.2589 27.4922C46.2449 28.4777 45.0737 28.9276 43.9812 28.9276C42.4622 28.9276 41.6538 28.7061 40.4084 28.1576L39.9139 27.9225L39.3808 31.2186C40.2725 31.6272 41.9132 31.9822 43.6179 32.0001C47.6077 32.0001 50.2034 30.0235 50.2354 26.9748C50.2509 25.2962 49.2353 24.0237 47.0413 22.9734C45.716 22.2929 44.8973 21.8387 44.9112 21.1486C44.9112 20.5379 45.596 19.8833 47.0862 19.8833C48.3312 19.8643 49.2259 20.1479 49.932 20.4492L50.2679 20.6177L50.7868 17.428L50.7866 17.4283ZM33.2004 31.7832L35.5779 17.0659H39.3776L37.0005 31.7832H33.2004ZM30.0128 17.0785L26.2929 27.1091L25.896 25.0703C24.97 22.573 22.965 19.9511 20.6289 18.8871L24.0319 31.7685L28.0551 31.7661L34.036 17.0784H30.0127L30.0128 17.0785Z" fill="#C5CAD0"/>
<path d="M22.8439 17.0728H16.7152L16.6797 17.3252C21.4447 18.5442 24.5886 21.5367 25.8972 25.0765L24.5656 18.3105C24.3371 17.3819 23.6697 17.1062 22.8439 17.0728Z" fill="#C5CAD0"/>
<path d="M5.21803 13.5157H2.79489L0 0.91363L2.67833 0.466364L4.59054 10.3273L9.46218 0.596428H12.0355L5.21803 13.5156V13.5157ZM14.4203 5.81688C13.5249 5.81688 12.6895 6.52449 12.2944 7.998H15.8733C15.9395 6.59945 15.5007 5.81688 14.4203 5.81688ZM17.8201 9.39632H12.0418C11.8833 11.1475 12.698 11.9121 14.0776 11.9121C15.234 11.9121 16.2509 11.4831 17.3451 10.7934L17.3366 12.5463C16.2638 13.217 15.0231 13.6458 13.5695 13.6458C11.0521 13.6458 9.39028 12.2111 9.89001 8.96684C10.3396 6.03947 12.3649 4.26939 14.7131 4.26939C17.4171 4.26939 18.3154 6.30212 17.9227 8.85477C17.8943 9.04158 17.8413 9.26494 17.8201 9.39643V9.39632ZM21.588 8.29588L20.7926 13.4597H18.5562L19.9415 4.45532H21.8434L21.8449 6.26337C22.6028 5.21957 23.6308 4.34326 25.0413 4.26928L25.0537 6.48728C23.6413 6.58025 22.3708 7.32726 21.5881 8.29588H21.588ZM27.7791 2.94537C27.0338 2.94537 26.5182 2.42325 26.6324 1.67865C26.7501 0.913521 27.4302 0.37296 28.1763 0.37296C28.9027 0.37296 29.4154 0.913521 29.2982 1.67865C29.1835 2.42325 28.507 2.94537 27.7791 2.94537ZM25.0235 13.4596L26.4105 4.45521H28.6468L27.2613 13.4596H25.0235ZM34.8415 1.99431C34.0772 1.99431 33.6154 2.32952 33.4934 3.13251L33.289 4.45532H35.0039L35.0023 6.28225H33.0084L31.9029 13.4597H29.6846L30.7894 6.28225H29.4849L29.7661 4.45532H31.0708L31.3081 2.90838C31.6156 0.91363 32.998 0.16837 34.8431 0.16837C35.2357 0.16837 35.5275 0.205139 35.7465 0.243005L35.7618 2.06917C35.545 2.03207 35.2148 1.99442 34.8415 1.99442V1.99431ZM37.6221 2.94537C36.8766 2.94537 36.3609 2.42325 36.4751 1.67865C36.593 0.913521 37.272 0.37296 38.0184 0.37296C38.7449 0.37296 39.258 0.913521 39.1425 1.67865C39.0271 2.42325 38.3493 2.94537 37.6221 2.94537ZM34.8663 13.4596L36.2533 4.45521H38.4888L37.104 13.4596H34.8663ZM43.7607 5.81666C42.8663 5.81666 42.0297 6.52427 41.6378 7.99778H45.2164C45.2812 6.59923 44.8426 5.81666 43.7606 5.81666H43.7607ZM47.1644 9.3961H41.3835C41.2266 11.1473 42.0393 11.9119 43.4175 11.9119C44.5744 11.9119 45.5921 11.4828 46.6857 10.7932L46.6771 12.5461C45.6036 13.2168 44.3644 13.6456 42.9099 13.6456C40.392 13.6456 38.7332 12.2109 39.2312 8.96662C39.6807 6.03925 41.7062 4.26917 44.0551 4.26917C46.7598 4.26917 47.6577 6.3019 47.2647 8.85455C47.2366 9.04136 47.1817 9.26472 47.1644 9.39621V9.3961ZM54.5357 6.54315C54.018 6.28203 53.6085 6.15197 52.8434 6.15197C51.6694 6.15197 50.6654 7.10248 50.3607 9.07835C50.0913 10.8311 50.7116 11.6507 51.6979 11.6507C52.519 11.6507 53.2274 11.1672 53.9373 10.4217L54.5357 6.54315ZM53.7876 13.4596L53.7934 12.2108C53.0438 12.9751 52.0633 13.6455 50.8151 13.6455C48.9301 13.6455 47.637 12.2471 48.1052 9.20853C48.6202 5.85299 50.6959 4.3629 52.7825 4.3629C53.641 4.3629 54.3077 4.51174 54.8196 4.69712L55.4879 0.354191L57.779 0L55.7095 13.4595H53.7877L53.7876 13.4596ZM63.8099 7.99481C63.2464 7.99481 62.6804 8.37655 62.1773 8.88441L61.7022 11.9766C62.0361 12.1046 62.2657 12.1607 62.7456 12.1607C63.8191 12.1607 64.5684 11.5105 64.8082 9.95785C65.012 8.6436 64.5726 7.99492 63.8098 7.99492L63.8099 7.99481ZM62.5611 13.5445C61.5026 13.5445 60.639 13.3743 59.836 13.0913L61.3053 3.53203L63.0414 3.26466L62.407 7.40113C62.9123 6.94958 63.6185 6.49793 64.4789 6.49793C65.9196 6.49793 66.8824 7.57071 66.5314 9.85863C66.1458 12.3713 64.5946 13.5443 62.561 13.5443L62.5611 13.5445ZM70.5239 13.8267C69.6584 15.5068 68.8017 16.0288 67.4869 16.0288C67.192 16.0288 67.026 16.0004 66.8779 15.9575L66.8666 14.5604C67.0828 14.6171 67.3176 14.6601 67.6418 14.6601C68.137 14.6601 68.5661 14.4331 68.8552 13.9386L69.0783 13.4869L67.6434 6.7664L69.4442 6.54018L70.2762 11.3973L72.5342 6.63908H74.2153L70.5242 13.8265L70.5239 13.8267Z" fill="#C5CAD0"/>
</svg>
