<svg width="97" height="35" viewBox="0 0 97 35" fill="none" xmlns="http://www.w3.org/2000/svg">
<path d="M8.89504 22.0339C8.33669 21.6598 7.58041 21.3331 6.51213 21.3331C5.35869 21.3331 4.43055 21.5723 4.43055 22.8C4.43055 24.9665 8.6362 24.1579 8.6362 28.7976C8.6362 33.0248 5.86005 34.1207 3.34939 34.1207C2.23229 34.1207 0.947463 33.7509 0 33.3305L0.681879 30.2236C1.25312 30.7436 2.40656 31.0989 3.34939 31.0989C4.24813 31.0989 5.65619 30.8538 5.65619 29.285C5.65619 26.8296 1.45296 27.7428 1.45296 23.4328C1.45296 19.4907 3.90825 18.3097 6.27655 18.3097C7.61021 18.3097 8.86332 18.5053 9.59816 18.9937L8.89514 22.0339H8.89504Z" fill="#F69E1A"/>
<path d="M17.3399 33.5985C16.3691 33.9339 15.424 34.0954 14.4171 34.0954C11.2312 34.0954 9.56836 32.2165 9.56836 28.6324C9.56836 24.4468 11.6839 21.3586 14.5553 21.3586C16.9066 21.3586 18.4062 23.0844 18.4062 25.7951C18.4062 26.6914 18.3042 27.569 18.0599 28.8055H12.3741C12.3569 28.9881 12.3507 29.0784 12.3507 29.1846C12.3507 30.6062 13.2025 31.3245 14.857 31.3245C15.8764 31.3245 16.7981 31.0865 17.8199 30.5513L17.3399 33.5985ZM15.7448 26.3415C15.7574 26.0837 15.766 25.8786 15.766 25.7211C15.766 24.7274 15.2648 24.145 14.4171 24.145C13.5061 24.145 12.8583 24.9283 12.5971 26.3287L15.7448 26.3415Z" fill="#F69E1A"/>
<path d="M25.6929 33.5935C25.1045 33.8765 24.3186 34.0636 23.1591 34.0636C20.6652 34.0636 19.1191 31.5716 19.1191 28.537C19.1191 24.5652 21.3556 21.3976 24.6477 21.3976C25.3658 21.3976 26.4616 21.7077 27.3263 22.209L26.6955 25.1219C26.0836 24.7194 25.4464 24.4645 24.7902 24.4645C23.2651 24.4645 22.1755 25.8624 22.1755 28.3671C22.1755 29.8088 22.9655 30.9923 24.2146 30.9923C24.9578 30.9923 25.4806 30.8354 26.12 30.4614L25.6929 33.5936V33.5935Z" fill="#F69E1A"/>
<path d="M36.3646 30.5405C36.218 31.5896 36.0823 32.609 36.0015 33.7037H33.2552L33.4867 31.7324H33.4593C32.599 33.0719 31.7092 33.9837 30.1546 33.9837C28.4296 33.9837 27.4951 32.1704 27.4951 29.8009C27.4951 28.9841 27.5462 28.5222 27.7288 27.2468L28.5061 21.6011H31.5626L30.7424 27.2637C30.66 27.8726 30.543 28.4758 30.543 29.1046C30.543 29.8184 30.8681 30.5405 31.6919 30.4965C32.9451 30.4965 33.6845 28.9643 33.8946 27.1761L34.738 21.6011H37.6966L36.3647 30.5404L36.3646 30.5405Z" fill="#F69E1A"/>
<path d="M44.0922 21.482C44.0048 21.4578 43.9051 21.4476 43.799 21.4476C42.8728 21.4476 42.329 21.9829 41.4605 23.4317L41.7133 21.5809H39.1304L37.3867 33.7797H40.2392C41.2652 26.3172 41.5371 25.0331 42.905 25.0331C42.9852 25.0331 42.9939 25.0331 43.1128 25.0473C43.37 23.5715 43.7161 22.4897 44.196 21.5032L44.0922 21.482Z" fill="#F69E1A"/>
<path d="M51.2746 33.5985C50.3015 33.9339 49.3544 34.0954 48.3512 34.0954C45.1585 34.0954 43.498 32.2165 43.498 28.6324C43.498 24.4468 45.6153 21.3586 48.4847 21.3586C50.837 21.3586 52.341 23.0844 52.341 25.7951C52.341 26.6914 52.2346 27.569 51.9814 28.8055H46.3079C46.291 28.9881 46.2801 29.0784 46.2801 29.1846C46.2801 30.6062 47.1298 31.3245 48.7851 31.3245C49.8046 31.3245 50.7286 31.0865 51.7501 30.5513L51.2745 33.5985H51.2746ZM49.6708 26.3415C49.6899 26.0837 49.7008 25.8786 49.7008 25.7211C49.7008 24.7274 49.1954 24.145 48.3512 24.145C47.4396 24.145 46.7924 24.9283 46.5288 26.3287L49.6708 26.3415Z" fill="#F69E1A"/>
<path d="M62.9822 19.2476L62.5145 22.4973C61.4991 21.9239 60.7603 21.6859 59.9616 21.6859C57.8267 21.6859 56.3358 24.0083 56.3358 27.3089C56.3358 29.5869 57.334 30.9661 58.9972 30.9661C59.7067 30.9661 60.4818 30.7242 61.4248 30.1931L60.9302 33.6142C59.8742 33.9397 59.1839 34.0517 58.4006 34.0517C55.3249 34.0517 53.4092 31.5652 53.4092 27.5766C53.4092 22.2086 56.0535 18.462 59.841 18.462C60.3311 18.462 60.7642 18.5244 61.1234 18.6232L62.2914 18.9546C62.6526 19.0978 62.7272 19.1235 62.9822 19.2479V19.2476Z" fill="#F69E1A"/>
<path d="M68.783 26.8215C68.783 29.5865 67.9269 31.2151 66.5781 31.2151C65.5926 31.2447 64.996 30.1475 64.996 28.5048C64.996 26.5636 65.869 24.363 67.2684 24.363C68.3941 24.363 68.7829 25.5555 68.7829 26.8215H68.783ZM71.7881 26.8723C71.7881 23.7985 70.2699 21.4065 67.4151 21.4065C64.1295 21.4065 62.001 24.3153 62.001 28.5986C62.001 31.6642 63.2588 34.1719 66.37 34.1719C69.5094 34.1719 71.7881 31.9486 71.7881 26.8724V26.8723Z" fill="#F69E1A"/>
<path d="M81.3554 33.6496H78.66L78.7981 32.4588C78.0144 33.3978 77.1991 33.8136 76.1559 33.8136C74.0762 33.8136 72.7041 31.7974 72.7041 28.7477C72.7041 24.6979 74.8348 21.2626 77.3539 21.2626C78.4647 21.2626 79.3079 21.7877 80.0877 22.9434L80.7161 18.6545H83.5241L81.3555 33.6497L81.3554 33.6496ZM77.1369 30.7808C78.4815 30.7808 79.4078 29.0875 79.4078 26.6703C79.4078 25.1156 78.8787 24.2815 77.8978 24.2815C76.5999 24.2815 75.6778 25.9763 75.6778 28.3851C75.6778 29.9737 76.1728 30.7808 77.1369 30.7808Z" fill="#F69E1A"/>
<path d="M91.0895 33.5985C90.1035 33.9339 89.1692 34.0954 88.1582 34.0954C84.9723 34.0954 83.3047 32.2165 83.3047 28.6324C83.3047 24.4468 85.4267 21.3586 88.2958 21.3586C90.6477 21.3586 92.1446 23.0844 92.1446 25.7951C92.1446 26.6914 92.0472 27.569 91.7947 28.8055H86.1148C86.0956 28.9881 86.0916 29.0784 86.0916 29.1846C86.0916 30.6062 86.9431 31.3245 88.5976 31.3245C89.6195 31.3245 90.5393 31.0865 91.5626 30.5513L91.0894 33.5985H91.0895ZM89.4856 26.3415C89.4984 26.0837 89.507 25.8786 89.507 25.7211C89.507 24.7274 89.0079 24.145 88.1582 24.145C87.2474 24.145 86.6012 24.9283 86.338 26.3287L89.4856 26.3415Z" fill="#F69E1A"/>
<path d="M93.9365 33.5542H93.4749V31.5321H92.8066V31.0973H94.6051V31.5321H93.9365V33.5542ZM97.0002 33.5542H96.5693V31.5013H96.563L96.1505 33.5542H95.6979L95.2943 31.5013H95.2883V33.5542H94.8578V31.0973H95.5313L95.9318 33.0345H95.9382L96.3323 31.0973H97.0002V33.5542Z" fill="#F69E1A"/>
<path d="M12.8454 15.3098H9.79315L11.5411 3.78373L7.63526 15.3098H5.54311L5.29041 3.85169L3.44884 15.3098H0.589844L2.97536 0.310303H7.374L7.49492 9.59194L10.4646 0.310303H15.2114L12.8454 15.3098Z" fill="#EB001A"/>
<path d="M20.7088 9.87662C20.3862 9.83836 20.2437 9.82407 20.025 9.82407C18.2939 9.82407 17.4166 10.4544 17.4166 11.6863C17.4166 12.4453 17.8478 12.9294 18.515 12.9294C19.7573 12.9294 20.658 11.6863 20.7088 9.87662ZM22.9306 15.3098H20.401L20.4562 14.0439C19.6851 15.0534 18.655 15.5221 17.2553 15.5221C15.5944 15.5221 14.46 14.1628 14.46 12.1989C14.46 9.22102 16.4419 7.492 19.8297 7.492C20.1756 7.492 20.6177 7.51899 21.0721 7.58271C21.1677 7.1792 21.1933 7.00523 21.1933 6.7911C21.1933 5.98559 20.6622 5.67963 19.2305 5.67963C18.3663 5.67963 17.3742 5.81122 16.6904 6.02797L16.2657 6.151L15.9979 6.23053L16.4184 3.49456C17.9436 3.02057 18.9481 2.83765 20.0801 2.83765C22.7053 2.83765 24.0965 4.07697 24.0965 6.41457C24.0965 7.02175 24.0522 7.47247 23.844 8.83442L23.2043 13.1562L23.1004 13.9363L23.0221 14.5582L22.9688 14.9829L22.9305 15.3099L22.9306 15.3098Z" fill="#EB001A"/>
<path d="M25.108 6.96965C25.108 8.50898 25.8175 9.57353 27.4231 10.3693C28.6528 10.9813 28.8484 11.1594 28.8484 11.7148C28.8484 12.4722 28.3024 12.8233 27.1003 12.8233C26.1936 12.8233 25.3461 12.6716 24.3688 12.3349L23.9463 15.1485L24.0842 15.1781L24.6452 15.2973C24.8256 15.3355 25.0911 15.3694 25.4416 15.4078C26.1698 15.4759 26.7287 15.5082 27.1234 15.5082C30.3289 15.5082 31.8116 14.214 31.8116 11.436C31.8116 9.76663 31.1932 8.7796 29.6662 8.04054C28.3916 7.43306 28.247 7.2899 28.247 6.72359C28.247 6.06245 28.7529 5.72227 29.7338 5.72227C30.3331 5.72227 31.1445 5.79315 31.9196 5.90379L32.3554 3.08727C31.5585 2.95106 30.3754 2.84656 29.6746 2.84656C26.2741 2.84656 25.0952 4.71853 25.108 6.96985V6.96965Z" fill="#EB001A"/>
<path d="M37.1495 15.1608C36.3189 15.4368 35.6626 15.563 34.9573 15.563C33.3984 15.563 32.5469 14.6128 32.5469 12.8797C32.5469 12.54 32.5723 12.173 32.6339 11.7865L32.8228 10.5969L32.9632 9.62569L34.2884 1.30249H37.3258L36.9774 3.11214H38.5407L38.1117 6.07716H36.5526L35.7452 11.1675C35.7179 11.3926 35.6945 11.5583 35.6945 11.6729C35.6945 12.2975 36.0129 12.5764 36.7351 12.5764C37.0879 12.5764 37.3535 12.5398 37.557 12.4632L37.1495 15.1607V15.1608Z" fill="#EB001A"/>
<path d="M46.8287 15.0521C45.784 15.3807 44.773 15.5465 43.6898 15.542C40.283 15.542 38.5029 13.6674 38.5029 10.0819C38.5029 5.89102 40.7671 2.8053 43.8446 2.8053C46.3556 2.8053 47.9672 4.53441 47.9672 7.24441C47.9672 8.14204 47.8589 9.01732 47.5874 10.2536H41.5126C41.4872 10.4389 41.4829 10.524 41.4829 10.6313C41.4829 12.0573 42.3918 12.7754 44.1698 12.7754C45.2594 12.7754 46.2409 12.539 47.3388 11.9992L46.8287 15.052V15.0521ZM45.1147 7.78957C45.1319 7.53496 45.1361 7.32646 45.1361 7.17233C45.1361 6.17573 44.5987 5.59372 43.6897 5.59372C42.7211 5.59372 42.0266 6.37064 41.742 7.78142L45.1146 7.78957H45.1147Z" fill="#EB001A"/>
<path d="M55.4429 3.01219C55.3469 2.99346 55.2407 2.98108 55.1305 2.98108C54.1239 2.98108 53.5544 3.51366 52.62 4.96631L52.8918 3.11286H50.1244L48.248 15.3101H51.3181C52.416 7.85491 52.6965 6.56797 54.1687 6.56797C54.2576 6.56797 54.2659 6.56797 54.3911 6.58075C54.6633 5.11078 55.0349 4.03043 55.5469 3.04491L55.443 3.01229L55.4429 3.01219Z" fill="#EB001A"/>
<path d="M65.5838 0.781448L65.0847 4.0356C63.9995 3.45782 63.2008 3.2313 62.3491 3.2313C60.0744 3.2313 58.4665 5.54343 58.4665 8.8445C58.4665 11.1241 59.5457 12.4977 61.3209 12.4977C62.075 12.4977 62.9033 12.2554 63.9165 11.7244L63.3834 15.1482C62.2621 15.4713 61.5312 15.5858 60.6837 15.5858C57.3895 15.5858 55.3398 13.1008 55.3398 9.11189C55.3398 3.74696 58.1711 0 62.2217 0C62.744 0 63.2113 0.0510428 63.5915 0.161686L64.8509 0.491601C65.2244 0.640099 65.3096 0.662952 65.5837 0.781448H65.5838Z" fill="#EB001A"/>
<path d="M70.8458 9.87662C70.5275 9.83836 70.3805 9.82407 70.1662 9.82407C68.4287 9.82407 67.5493 10.4544 67.5493 11.6863C67.5493 12.4453 67.9847 12.9294 68.6518 12.9294C69.9005 12.9294 70.7903 11.6863 70.8458 9.87662ZM73.0694 15.3098H70.5353L70.5949 14.0439C69.8242 15.0534 68.7919 15.5221 67.3939 15.5221C65.7332 15.5221 64.5947 14.1628 64.5947 12.1989C64.5947 9.22102 66.5746 7.492 69.9683 7.492C70.3125 7.492 70.7587 7.51899 71.2111 7.58271C71.3044 7.1792 71.3322 7.00523 71.3322 6.7911C71.3322 5.98559 70.8012 5.67963 69.3695 5.67963C68.5007 5.67963 67.5114 5.81122 66.8334 6.02797L66.398 6.151L66.1348 6.23053L66.5593 3.49456C68.0866 3.02057 69.0894 2.83765 70.2129 2.83765C72.8426 2.83765 74.2335 4.07697 74.2335 6.41457C74.2335 7.02175 74.1805 7.47247 73.9829 8.83442L73.3391 13.1562L73.2438 13.9363L73.1586 14.5582L73.1035 14.9829L73.0693 15.3099L73.0694 15.3098Z" fill="#EB001A"/>
<path d="M81.6024 3.01219C81.5109 2.99346 81.4111 2.98108 81.2944 2.98108C80.2921 2.98108 79.7183 3.51366 78.7793 4.96631L79.0517 3.11286H76.2883L74.4189 15.3101H77.4796C78.578 7.85491 78.8666 6.56797 80.3277 6.56797C80.4237 6.56797 80.4173 6.55921 80.5426 6.58075C80.8185 5.11078 81.1924 4.03043 81.7065 3.04491L81.6023 3.01229L81.6024 3.01219Z" fill="#EB001A"/>
<path d="M89.9179 15.3098H87.0272L87.1779 14.1148C86.3368 15.0592 85.4721 15.4713 84.3554 15.4713C82.1209 15.4713 80.6572 13.4574 80.6572 10.4075C80.6572 6.35097 82.9323 2.92577 85.6341 2.92577C86.8213 2.92577 87.7195 3.43952 88.565 4.59518L89.2299 0.310303H92.2418L89.918 15.3098H89.9179ZM85.4083 12.438C86.836 12.438 87.8342 10.7432 87.8342 8.32905C87.8342 6.77844 87.2653 5.93477 86.2094 5.93477C84.8249 5.93477 83.8413 7.6365 83.8413 10.0364C83.8413 11.6338 84.3701 12.438 85.4083 12.438Z" fill="#EB001A"/>
<path d="M91.6895 13.5418C91.6895 12.481 92.5119 11.6229 93.516 11.6229C94.5251 11.6229 95.3389 12.481 95.3389 13.5418C95.3389 14.6037 94.5251 15.4618 93.516 15.4618C92.5119 15.4618 91.6895 14.6036 91.6895 13.5418ZM93.516 15.0074C94.2829 15.0074 94.9095 14.3489 94.9095 13.5418C94.9095 12.7387 94.2829 12.0861 93.516 12.0861C92.7514 12.0861 92.1226 12.7388 92.1226 13.5418C92.1226 14.3489 92.7514 15.0074 93.516 15.0074ZM93.2673 14.3828H92.8938V12.6922H93.5715C93.7094 12.6922 93.8644 12.7005 93.9833 12.7855C94.1129 12.8806 94.1872 13.0404 94.1872 13.2103C94.1872 13.3971 94.081 13.5728 93.9112 13.6365L94.2041 14.3828H93.7882L93.5415 13.7201H93.2673V14.3828ZM93.2673 13.4328H93.476C93.5524 13.4328 93.6417 13.4357 93.7055 13.3971C93.7691 13.3563 93.7966 13.2739 93.7966 13.2018C93.7966 13.1382 93.7606 13.0615 93.7055 13.032C93.6499 12.9936 93.5375 13.0021 93.4718 13.0021H93.2675V13.4327L93.2673 13.4328Z" fill="#EB001A"/>
</svg>
