<svg width="161" height="26" viewBox="0 0 161 26" fill="none" xmlns="http://www.w3.org/2000/svg">
<mask id="mask0" mask-type="alpha" maskUnits="userSpaceOnUse" x="0" y="0" width="161" height="26">
<rect width="161" height="26" fill="#C4C4C4"/>
</mask>
<g mask="url(#mask0)">
<path fill-rule="evenodd" clip-rule="evenodd" d="M22.5882 3C20.2328 3 18.0654 3.83756 16.3461 5.2411C14.6281 3.83756 12.4607 3 10.1053 3C4.52463 3 0 7.70095 0 13.5C0 19.299 4.52463 24 10.1053 24C12.4607 24 14.6281 23.1624 16.3461 21.7589C18.0654 23.1624 20.2328 24 22.5882 24C28.1695 24 32.6935 19.299 32.6935 13.5C32.6935 7.70095 28.1695 3 22.5882 3ZM12.4914 13.5C12.4914 10.1532 13.9986 7.17163 16.3461 5.24887C18.6949 7.17163 20.2021 10.1532 20.2021 13.5C20.2021 16.8468 18.6949 19.8284 16.3461 21.7511C13.9986 19.8284 12.4914 16.8468 12.4914 13.5ZM66.4815 10.756C64.4292 10.756 63.1719 12.3662 63.1719 14.3261C63.1719 16.286 64.4292 17.8961 66.4815 17.8961C68.4436 17.8961 69.7688 16.3554 69.7688 14.3261C69.7688 12.2966 68.4436 10.756 66.4815 10.756ZM72.0049 8.75058V14.3261V19.9014H69.6327V18.5476C68.8803 19.5515 67.7387 20.1818 66.187 20.1818C63.128 20.1818 60.7298 17.7332 60.7298 14.3261C60.7298 10.9215 63.128 8.4703 66.187 8.4703C67.7387 8.4703 68.8803 9.10045 69.6327 10.1044V8.75058H72.0049ZM155.475 10.756C153.422 10.756 152.165 12.3662 152.165 14.3261C152.165 16.286 153.422 17.8961 155.475 17.8961C157.44 17.8961 158.761 16.3554 158.761 14.3261C158.761 12.2966 157.44 10.756 155.475 10.756ZM161 4.27273V14.3261V19.9014H158.626V18.5476C157.874 19.5515 156.731 20.1818 155.18 20.1818C152.121 20.1818 149.722 17.7332 149.722 14.3261C149.722 10.9215 152.121 8.4703 155.18 8.4703C156.731 8.4703 157.874 9.10045 158.626 10.1044V4.27273H161ZM104.211 13.346C103.96 11.621 102.978 10.6412 101.45 10.6412C99.7594 10.6412 98.8033 11.7359 98.5497 13.346H104.211ZM96.0624 14.3261C96.0624 10.8494 98.2991 8.4703 101.497 8.4703C104.553 8.4703 106.654 10.8494 106.677 14.3261C106.677 14.584 106.662 14.8285 106.644 15.069L106.63 15.2579H98.5286C98.8708 17.2658 100.264 17.9895 101.792 17.9895C102.886 17.9895 104.052 17.5677 104.966 16.8227L106.129 18.6198C104.804 19.7627 103.3 20.1818 101.656 20.1818C98.3907 20.1818 96.0624 17.872 96.0624 14.3261ZM133.449 10.756C131.396 10.756 130.14 12.3662 130.14 14.3261C130.14 16.286 131.396 17.8961 133.449 17.8961C135.411 17.8961 136.736 16.3554 136.736 14.3261C136.736 12.2966 135.411 10.756 133.449 10.756ZM138.973 8.75058V14.3261V19.9014H136.6V18.5476C135.845 19.5515 134.706 20.1818 133.154 20.1818C130.095 20.1818 127.697 17.7332 127.697 14.3261C127.697 10.9215 130.095 8.4703 133.154 8.4703C134.706 8.4703 135.845 9.10045 136.6 10.1044V8.75058H138.973ZM122.563 20.1818C119.047 20.1818 116.743 17.7091 116.743 14.3261C116.743 10.9429 119.047 8.4703 122.563 8.4703C124.207 8.4703 125.301 8.84395 126.487 9.80005L125.348 11.7599C124.458 11.1059 123.522 10.756 122.493 10.756C120.599 10.7799 119.207 12.1791 119.207 14.3261C119.207 16.4729 120.599 17.872 122.493 17.8961C123.522 17.8961 124.458 17.5464 125.348 16.892L126.487 18.8521C125.301 19.808 124.207 20.1818 122.563 20.1818ZM144.451 10.1044C145.067 9.12453 145.958 8.4703 147.327 8.4703C147.565 8.4703 147.854 8.4933 148.148 8.54224C148.448 8.59195 148.753 8.66839 149.017 8.77466L148.286 11.0603C148.009 10.9441 147.733 10.8708 147.46 10.8285C147.238 10.7941 147.018 10.7801 146.801 10.7801C145.25 10.7801 144.474 11.8055 144.474 13.6505V19.9014H142.099V8.75058H144.451V10.1044ZM79.2886 8.4703C81.0229 8.4703 82.5958 8.86803 83.7373 9.63707L82.7102 11.597C82.0494 11.1778 80.7018 10.6412 79.3091 10.6412C78.0079 10.6412 77.2326 11.1296 77.2326 11.9468C77.2326 12.6946 78.0549 12.9028 79.0819 13.0417L80.2 13.2073C82.5747 13.5569 84.0114 14.5823 84.0114 16.5425C84.0114 18.6652 82.1855 20.1818 79.0344 20.1818C77.2555 20.1818 75.6127 19.7145 74.3115 18.7345L75.4296 16.8467C76.2296 17.4768 77.4157 18.0136 79.0585 18.0136C80.6783 18.0136 81.5452 17.5223 81.5452 16.6599C81.5452 16.0296 80.9319 15.6799 79.6307 15.493L78.5103 15.33C76.0693 14.9801 74.7453 13.8587 74.7453 12.0404C74.7453 9.82413 76.5242 8.4703 79.2886 8.4703ZM111.471 10.1044C112.084 9.12453 112.975 8.4703 114.345 8.4703C114.825 8.4703 115.51 8.56368 116.034 8.77466L115.304 11.0603C114.802 10.8494 114.301 10.7801 113.819 10.7801C112.268 10.7801 111.492 11.8055 111.492 13.6505V19.9014H109.119V8.75058H111.471V10.1044ZM90.2215 8.75058H94.1004V10.967H90.2215V16.0055C90.2215 17.1243 90.6077 17.872 91.7938 17.872C92.4107 17.872 93.1866 17.6612 93.895 17.2419L94.5787 19.3192C93.8263 19.856 92.6402 20.1818 91.6113 20.1818C88.8053 20.1818 87.8234 18.6411 87.8234 16.0537V10.967H85.6108V8.75058H87.8234V5.36741H90.2215V8.75058ZM58.6323 12.9028V19.9014H56.2335V13.6958C56.2335 11.8055 55.4576 10.756 53.8384 10.756C52.2625 10.756 51.1679 11.784 51.1679 13.7198V19.9014H48.7698V13.6958C48.7698 11.8055 47.9728 10.756 46.3975 10.756C44.7758 10.756 43.7252 11.784 43.7252 13.7198V19.9014H41.3295V8.75058H43.7042V10.1257C44.5951 8.82002 45.7337 8.4703 46.8993 8.4703C48.5655 8.4703 49.7517 9.21791 50.5041 10.4541C51.5101 8.88947 52.9468 8.44622 54.3395 8.4703C56.9883 8.49423 58.6323 10.2674 58.6323 12.9028Z" fill="#D9D9D9"/>
</g>
</svg>
