<?xml version="1.0" encoding="utf-8"?>
<!-- Generator: Adobe Illustrator 20.1.0, SVG Export Plug-In . SVG Version: 6.00 Build 0)  -->
<svg version="1.1" id="Слой_1" xmlns="http://www.w3.org/2000/svg" xmlns:xlink="http://www.w3.org/1999/xlink" x="0px" y="0px"
	 viewBox="0 0 361 136" style="enable-background:new 0 0 361 136;" xml:space="preserve">
<style type="text/css">
	.st0{fill:#C5CAD0;}
</style>
<path class="st0" d="M338.8,54.7c0-3.8,3-6.9,6.6-6.9c3.7,0,6.6,3.1,6.6,6.9c0,3.8-2.9,6.9-6.6,6.9
	C341.8,61.7,338.8,58.6,338.8,54.7z M345.4,60.1c2.8,0,5-2.4,5-5.3c0-2.9-2.3-5.3-5-5.3c-2.8,0-5,2.4-5,5.3
	C340.4,57.7,342.6,60.1,345.4,60.1z M344.5,57.8h-1.4v-6.1h2.5c0.5,0,1.1,0,1.5,0.3c0.5,0.3,0.7,0.9,0.7,1.5c0,0.7-0.4,1.3-1,1.5
	l1.1,2.7h-1.5l-0.9-2.4h-1L344.5,57.8L344.5,57.8L344.5,57.8z M344.5,54.4h0.8c0.3,0,0.6,0,0.8-0.1c0.2-0.1,0.3-0.4,0.3-0.7
	c0-0.2-0.1-0.5-0.3-0.6c-0.2-0.1-0.6-0.1-0.8-0.1h-0.7L344.5,54.4L344.5,54.4z M244.3,8.6l-1.8,11.8c-3.9-2.1-6.8-2.9-9.9-2.9
	c-8.2,0-14,8.4-14,20.3c0,8.2,3.9,13.2,10.3,13.2c2.7,0,5.7-0.9,9.4-2.8l-1.9,12.4c-4.1,1.2-6.7,1.6-9.8,1.6
	c-11.9,0-19.3-9-19.3-23.4c0-19.4,10.2-33,24.9-33c1.9,0,3.6,0.2,5,0.6l4.6,1.2C243,8.1,243.3,8.2,244.3,8.6L244.3,8.6z M207.6,16.7
	c-0.3-0.1-0.7-0.1-1.1-0.1c-3.6,0-5.7,1.9-9.1,7.2l1-6.7h-10l-6.8,44.1h11.1c4-27,5-31.6,10.3-31.6c0.3,0,0.4,0,0.8,0
	c1-5.3,2.3-9.2,4.2-12.8L207.6,16.7L207.6,16.7z M141.5,60.6c-3,1-5.4,1.5-7.9,1.5c-5.6,0-8.7-3.4-8.7-9.7c0-1.2,0.1-2.6,0.3-4
	l0.7-4.3l0.5-3.5l4.8-30.1h11l-1.3,6.5h5.7l-1.6,10.7h-5.6l-2.9,18.4c-0.1,0.8-0.2,1.4-0.2,1.8c0,2.3,1.2,3.3,3.8,3.3
	c1.3,0,2.2-0.1,3-0.4L141.5,60.6L141.5,60.6z M97.9,31c0,5.6,2.6,9.4,8.4,12.3c4.4,2.2,5.2,2.9,5.2,4.9c0,2.7-2,4-6.3,4
	c-3.3,0-6.3-0.5-9.9-1.8l-1.5,10.2l0.5,0.1l2,0.4c0.7,0.1,1.6,0.3,2.9,0.4c2.6,0.2,4.7,0.4,6.1,0.4c11.6,0,17-4.7,17-14.7
	c0-6-2.2-9.6-7.8-12.3c-4.6-2.2-5.1-2.7-5.1-4.8c0-2.4,1.8-3.6,5.4-3.6c2.2,0,5.1,0.3,7.9,0.7l1.6-10.2c-2.9-0.5-7.2-0.9-9.7-0.9
	C102.1,16.1,97.8,22.8,97.9,31L97.9,31z M332.4,61.1h-10.5l0.5-4.3c-3,3.4-6.2,4.9-10.2,4.9c-8.1,0-13.4-7.3-13.4-18.3
	c0-14.7,8.2-27.1,18-27.1c4.3,0,7.5,1.9,10.6,6l2.4-15.5h10.9L332.4,61.1L332.4,61.1z M316.1,50.8c5.2,0,8.8-6.1,8.8-14.9
	c0-5.6-2.1-8.7-5.9-8.7c-5,0-8.6,6.2-8.6,14.8C310.4,47.8,312.3,50.8,316.1,50.8z M176.5,60.2c-3.8,1.2-7.4,1.8-11.4,1.8
	c-12.3,0-18.8-6.8-18.8-19.8c0-15.2,8.2-26.3,19.3-26.3c9.1,0,14.9,6.3,14.9,16.1c0,3.2-0.4,6.4-1.4,10.9h-22
	c-0.1,0.7-0.1,1-0.1,1.4c0,5.2,3.3,7.8,9.7,7.8c3.9,0,7.5-0.9,11.5-2.8L176.5,60.2L176.5,60.2z M170.3,33.9c0.1-0.9,0.1-1.7,0.1-2.2
	c0-3.6-1.9-5.7-5.2-5.7c-3.5,0-6,2.8-7,7.9L170.3,33.9z M53.5,61.1h-11l6.3-41.7L34.6,61.1h-7.6l-0.9-41.5l-6.7,41.5H9.2l8.6-54.3
	h15.9l0.4,33.6L44.9,6.9h17.2C62.1,6.9,53.5,61.1,53.5,61.1z M82,41.5c-1.2-0.1-1.7-0.2-2.5-0.2c-6.3,0-9.4,2.3-9.4,6.7
	c0,2.7,1.6,4.5,4,4.5C78.5,52.5,81.8,48,82,41.5z M90,61.1h-9.2l0.2-4.6c-2.8,3.7-6.5,5.3-11.6,5.3c-6,0-10.1-4.9-10.1-12
	c0-10.8,7.2-17,19.4-17c1.3,0,2.9,0.1,4.5,0.3c0.3-1.5,0.4-2.1,0.4-2.9c0-2.9-1.9-4-7.1-4c-3.1,0-6.7,0.5-9.2,1.3L65.9,28l-1,0.3
	l1.5-9.9c5.5-1.7,9.2-2.4,13.2-2.4c9.5,0,14.5,4.5,14.5,12.9c0,2.2-0.2,3.8-0.9,8.8L91,53.4l-0.4,2.8l-0.3,2.2L90.1,60L90,61.1z
	 M263.4,41.5c-1.1-0.1-1.7-0.2-2.5-0.2c-6.3,0-9.5,2.3-9.5,6.7c0,2.7,1.6,4.5,4,4.5C259.9,52.5,263.2,48,263.4,41.5z M271.4,61.1
	h-9.2l0.2-4.6c-2.8,3.7-6.5,5.3-11.6,5.3c-6,0-10.1-4.9-10.1-12c0-10.8,7.2-17,19.4-17c1.2,0,2.9,0.1,4.5,0.3
	c0.3-1.5,0.4-2.1,0.4-2.9c0-2.9-1.9-4-7.1-4c-3.1,0-6.7,0.5-9.2,1.3l-1.6,0.4l-1,0.3l1.5-9.9c5.5-1.7,9.2-2.4,13.2-2.4
	c9.5,0,14.5,4.5,14.5,12.9c0,2.2-0.2,3.8-0.9,8.8l-2.3,15.6l-0.3,2.8l-0.3,2.2l-0.2,1.5L271.4,61.1L271.4,61.1z M302.3,16.7
	c-0.3-0.1-0.7-0.1-1.1-0.1c-3.6,0-5.7,1.9-9.1,7.2l1-6.7h-10l-6.8,44.1h11.1c4-27,5-31.6,10.3-31.6c0.3,0,0.3,0,0.8,0
	c1-5.3,2.4-9.2,4.2-12.8C302.7,16.8,302.3,16.7,302.3,16.7z"/>
<g>
	<path class="st0" d="M255.9,104c0,10-3.1,15.9-8,15.9c-3.6,0.1-5.7-3.9-5.7-9.8c0-7,3.2-15,8.2-15C254.5,95.1,255.9,99.4,255.9,104
		z M266.8,104.1c0-11.1-5.5-19.8-15.8-19.8c-11.9,0-19.6,10.5-19.6,26c0,11.1,4.6,20.2,15.8,20.2
		C258.5,130.5,266.8,122.5,266.8,104.1L266.8,104.1z M234.9,76.6l-1.7,11.8c-3.7-2.1-6.3-2.9-9.2-2.9c-7.7,0-13.1,8.4-13.1,20.3
		c0,8.2,3.6,13.2,9.6,13.2c2.6,0,5.4-0.9,8.8-2.8l-1.8,12.4c-3.8,1.2-6.3,1.6-9.2,1.6c-11.1,0-18.1-9-18.1-23.4
		c0-19.4,9.6-33,23.3-33c1.8,0,3.3,0.2,4.6,0.6l4.2,1.2C233.7,76,234,76.1,234.9,76.6z M166.6,84.6c-0.3-0.1-0.7-0.1-1.1-0.1
		c-3.4,0-5.3,1.9-8.5,7.2L158,85h-9.3l-6.3,44.1h10.3c3.7-27,4.7-31.6,9.6-31.6c0.3,0,0.3,0,0.8,0.1c0.9-5.3,2.2-9.2,3.9-12.8
		L166.6,84.6L166.6,84.6z M301.4,128.7h-9.8l0.5-4.3c-2.8,3.4-5.8,4.9-9.6,4.9c-7.5,0-12.5-7.3-12.5-18.3c0-14.7,7.7-27.1,16.8-27.1
		c4,0,7.1,1.9,9.9,6.1l2.3-15.5h10.2L301.4,128.7L301.4,128.7z M286.1,118.3c4.9,0,8.2-6.1,8.2-14.9c0-5.6-1.9-8.6-5.5-8.6
		c-4.7,0-8,6.1-8,14.8C280.8,115.4,282.6,118.3,286.1,118.3z M69.8,128.5c-3.5,1.2-6.9,1.8-10.6,1.8c-11.5,0-17.5-6.8-17.5-19.8
		c0-15.1,7.7-26.3,18-26.3c8.5,0,13.9,6.2,13.9,16.1c0,3.2-0.4,6.4-1.3,10.9H51.8c-0.1,0.7-0.1,1-0.1,1.4c0,5.1,3.1,7.7,9.1,7.7
		c3.7,0,7-0.9,10.7-2.8L69.8,128.5z M64,102.2c0-0.9,0.1-1.7,0.1-2.2c0-3.6-1.8-5.7-4.9-5.7c-3.3,0-5.6,2.8-6.6,7.9L64,102.2z
		 M192.6,128.5c-3.5,1.2-6.9,1.8-10.6,1.8c-11.6,0-17.6-6.8-17.6-19.8c0-15.1,7.7-26.3,18-26.3c8.5,0,14,6.2,14,16.1
		c0,3.2-0.4,6.4-1.3,10.9h-20.5c-0.1,0.7-0.1,1-0.1,1.4c0,5.1,3.1,7.7,9.1,7.7c3.7,0,7-0.9,10.7-2.8L192.6,128.5L192.6,128.5z
		 M186.8,102.2c0.1-0.9,0.1-1.7,0.1-2.2c0-3.6-1.8-5.7-4.9-5.7c-3.3,0-5.6,2.8-6.6,7.9L186.8,102.2z M336.6,128.5
		c-3.6,1.2-7,1.8-10.6,1.8c-11.5,0-17.6-6.8-17.6-19.8c0-15.1,7.7-26.3,18.1-26.3c8.5,0,13.9,6.2,13.9,16.1c0,3.2-0.4,6.4-1.3,10.9
		h-20.5c-0.1,0.7-0.1,1-0.1,1.4c0,5.1,3.1,7.7,9.1,7.7c3.7,0,7-0.9,10.7-2.8L336.6,128.5L336.6,128.5z M330.8,102.2
		c0-0.9,0.1-1.7,0.1-2.2c0-3.6-1.8-5.7-4.9-5.7c-3.3,0-5.6,2.8-6.6,7.9L330.8,102.2L330.8,102.2z M39.2,86.6c-2-1.4-4.8-2.5-8.6-2.5
		c-4.2,0-7.5,0.9-7.5,5.3c0,7.8,15.2,4.9,15.2,21.7c0,15.3-10,19.3-19.1,19.3c-4,0-8.7-1.3-12.1-2.9l2.5-11.2
		c2.1,1.9,6.2,3.2,9.7,3.2c3.3,0,8.3-0.9,8.3-6.6c0-8.9-15.2-5.6-15.2-21.2c0-14.3,8.9-18.5,17.5-18.5c4.8,0,9.4,0.7,12,2.5
		C41.8,75.6,39.2,86.6,39.2,86.6z M100,128.5c-2.1,1-5,1.7-9.2,1.7c-9,0-14.6-9-14.6-20c0-14.4,8.1-25.8,20-25.8
		c2.6,0,6.6,1.1,9.7,2.9l-2.3,10.5c-2.2-1.5-4.5-2.4-6.9-2.4c-5.5,0-9.5,5.1-9.5,14.1c0,5.2,2.9,9.5,7.4,9.5c2.7,0,4.6-0.6,6.9-1.9
		C101.5,117.1,100,128.5,100,128.5z M138.6,117.4c-0.5,3.8-1,7.5-1.3,11.4h-9.9l0.8-7.1h-0.1c-3.1,4.8-6.3,8.1-12,8.1
		c-6.2,0-9.6-6.6-9.6-15.1c0-3,0.2-4.6,0.8-9.2l2.8-20.4h11.1l-3,20.5c-0.3,2.2-0.7,4.4-0.7,6.7c0,2.6,1.2,5.2,4.2,5
		c4.5,0,7.2-5.5,8-12l3.1-20.2h10.7L138.6,117.4z M346.9,128.3h-1.7V121h-2.4v-1.6h6.5v1.6h-2.4V128.3z M358,128.3h-1.6v-7.4h0
		l-1.5,7.4h-1.6l-1.5-7.4h0v7.4h-1.6v-8.9h2.4l1.5,7h0l1.4-7h2.4L358,128.3L358,128.3z"/>
</g>
</svg>
