<svg width="77" height="26" viewBox="0 0 77 26" fill="none" xmlns="http://www.w3.org/2000/svg">
<mask id="mask0" mask-type="alpha" maskUnits="userSpaceOnUse" x="0" y="0" width="77" height="26">
<rect width="77" height="26" fill="#C4C4C4"/>
</mask>
<g mask="url(#mask0)">
<path fill-rule="evenodd" clip-rule="evenodd" d="M20.7491 3.00918V3H27.602V24H20.7491V11.5376H20.178L16.1805 24H11.4215L7.42398 11.5284H7.13844H6.8529V24H0V3H6.8529C6.8529 3 9.86053 2.99082 10.6601 5.75109C11.4025 8.32796 13.5155 15.4716 13.5155 15.4716H14.0865C14.1436 15.279 16.209 8.29126 16.9419 5.76027C17.7414 3 20.7396 3.00918 20.7491 3.00918ZM42.8307 5.20087C43.773 3.17423 45.7812 3 45.7812 3H52.2534V24H45.4005V11.5284H44.8294L40.0705 21.7991C39.1281 23.8166 37.0247 24 37.0247 24H30.5525V3H37.4054V15.4716H37.9765L42.8307 5.20087ZM55.2991 12.5371V24H62.152V17.3057H69.576C72.8121 17.3057 75.5533 15.3157 76.5717 12.5371H55.2991ZM54.3379 3H69.576C73.6783 3 77 6.20043 77 10.1528C77 10.6572 76.9524 11.1432 76.8477 11.6201H65.1026C64.1128 11.6201 63.1514 11.4917 62.2377 11.2533C58.2117 10.2079 55.0993 6.99826 54.3379 3Z" fill="#D9D9D9"/>
</g>
</svg>
