<?xml version="1.0" encoding="utf-8"?>
<!-- Generator: Adobe Illustrator 20.1.0, SVG Export Plug-In . SVG Version: 6.00 Build 0)  -->
<svg version="1.1" id="Layer_1" xmlns="http://www.w3.org/2000/svg" xmlns:xlink="http://www.w3.org/1999/xlink" x="0px" y="0px"
	 viewBox="0 0 221.1 62.4" style="enable-background:new 0 0 221.1 62.4;" xml:space="preserve">
<style type="text/css">
	.st0{fill:#C5CAD0;}
</style>
<title>Mir_Logo</title>
<path class="st0" d="M123.1,6.6l-14,30.3h-1.4V0H87.9v62.4h16.8c4.4,0,8.4-2.6,10.3-6.6l14-30.3h1.4v36.9h19.8V0h-16.9
	C129,0,125,2.6,123.1,6.6z"/>
<path class="st0" d="M48.7,8.2l-8.3,28.7h-1.5L30.7,8.2C29.3,3.3,24.8,0,19.8,0H0v62.4h19.8V25.5h1.4l11.3,36.9h14.2l11.3-36.9h1.4
	v36.9h19.8V0H59.6C54.5,0,50.1,3.3,48.7,8.2z"/>
<path class="st0" d="M158.7,28.3v34h19.8V42.5h21.3c9,0,17-5.7,20-14.2L158.7,28.3L158.7,28.3z"/>
<path class="st0" d="M199.9,0h-43.9c2.7,14.8,15.6,25.5,30.7,25.5h34.1C223,14,215.6,2.8,204.1,0.4C202.7,0.1,201.3,0,199.9,0z"/>
</svg>
