<svg width="11" height="11" viewBox="0 0 11 11" fill="none" xmlns="http://www.w3.org/2000/svg">
<path d="M5.499 10.819C5.447 10.741 5.369 10.6543 5.265 10.559C5.16967 10.4637 5.07 10.3813 4.966 10.312C4.87067 10.2513 4.797 10.221 4.745 10.221H4.719L5.291 6.997L5.031 6.893L3.146 9.571C3.146 9.545 3.09833 9.52333 3.003 9.506C2.91633 9.48 2.821 9.45833 2.717 9.441C2.613 9.42367 2.53067 9.415 2.47 9.415C2.37467 9.415 2.27933 9.428 2.184 9.454L2.054 9.324C2.07133 9.28067 2.08 9.23733 2.08 9.194C2.08 9.142 2.08 9.09 2.08 9.038C2.08 8.91667 2.05833 8.77367 2.015 8.609C1.97167 8.43567 1.94133 8.349 1.924 8.349L4.602 6.464L4.485 6.204L1.261 6.789L1.274 6.75C1.274 6.698 1.235 6.62433 1.157 6.529C1.08767 6.425 1.00533 6.32533 0.91 6.23C0.814667 6.126 0.732333 6.05233 0.663 6.009V5.827C0.732333 5.775 0.814667 5.70133 0.91 5.606C1.00533 5.51067 1.08767 5.411 1.157 5.307C1.235 5.203 1.274 5.125 1.274 5.073L1.261 5.034L4.485 5.619L4.589 5.346L1.911 3.474C1.937 3.474 1.96733 3.38733 2.002 3.214C2.04533 3.032 2.067 2.87167 2.067 2.733C2.067 2.681 2.067 2.63767 2.067 2.603C2.067 2.55967 2.05833 2.525 2.041 2.499L2.171 2.369C2.26633 2.395 2.36167 2.408 2.457 2.408C2.52633 2.408 2.613 2.39933 2.717 2.382C2.821 2.36467 2.91633 2.343 3.003 2.317C3.09833 2.28233 3.146 2.25633 3.146 2.239L5.018 4.93L5.291 4.813L4.719 1.589L4.745 1.602C4.797 1.602 4.875 1.56733 4.979 1.498C5.083 1.42 5.18267 1.33333 5.278 1.238C5.382 1.14267 5.45567 1.06033 5.499 0.991H5.681C5.707 1.043 5.76767 1.11667 5.863 1.212C5.967 1.30733 6.071 1.39833 6.175 1.485C6.28767 1.563 6.37 1.602 6.422 1.602L6.461 1.589L5.889 4.813L6.149 4.93L8.021 2.239C8.03833 2.27367 8.125 2.31267 8.281 2.356C8.44567 2.39067 8.58867 2.408 8.71 2.408C8.814 2.408 8.90933 2.395 8.996 2.369L9.126 2.499C9.11733 2.525 9.10867 2.55967 9.1 2.603C9.1 2.63767 9.1 2.681 9.1 2.733C9.1 2.80233 9.10433 2.89767 9.113 3.019C9.13033 3.13167 9.152 3.23567 9.178 3.331C9.204 3.42633 9.23 3.474 9.256 3.474L6.578 5.346L6.669 5.606L9.906 5.034V5.073C9.906 5.125 9.94067 5.20733 10.01 5.32C10.088 5.424 10.1747 5.52367 10.27 5.619C10.3653 5.71433 10.4433 5.77933 10.504 5.814V5.996C10.4433 6.03067 10.3653 6.1 10.27 6.204C10.1747 6.308 10.088 6.412 10.01 6.516C9.94067 6.62 9.906 6.698 9.906 6.75V6.789L6.669 6.204L6.565 6.464L9.243 8.349C9.22567 8.349 9.204 8.39667 9.178 8.492C9.152 8.57867 9.13033 8.67833 9.113 8.791C9.09567 8.895 9.087 8.97733 9.087 9.038C9.087 9.09 9.087 9.142 9.087 9.194C9.09567 9.23733 9.10433 9.28067 9.113 9.324L8.983 9.454C8.89633 9.428 8.801 9.415 8.697 9.415C8.58433 9.415 8.44133 9.43667 8.268 9.48C8.10333 9.51467 8.021 9.545 8.021 9.571L6.136 6.893L5.889 6.997L6.461 10.221H6.435C6.383 10.221 6.30067 10.26 6.188 10.338C6.084 10.416 5.98 10.4983 5.876 10.585C5.78067 10.6803 5.71567 10.7583 5.681 10.819H5.499Z" fill="#323232"/>
</svg>
