<?xml version="1.0" encoding="utf-8"?>
<!-- Generator: Adobe Illustrator 20.1.0, SVG Export Plug-In . SVG Version: 6.00 Build 0)  -->
<svg version="1.1" id="Слой_1" xmlns="http://www.w3.org/2000/svg" xmlns:xlink="http://www.w3.org/1999/xlink" x="0px" y="0px"
	 viewBox="0 0 319 78" style="enable-background:new 0 0 319 78;" xml:space="preserve">
<style type="text/css">
	.st0{fill:#C5CAD0;}
</style>
<path class="st0" d="M137,27.2c-1.7-0.9-4.1-1.6-6.9-1.6c-6.6,0-10.6,3.1-12.2,4.4l2.4-14h-9.3l-6.5,38.4h9.3l3.5-20.9
	c2.3-1.8,5.2-3.3,8.3-3.3c1.6,0,3,0.5,3.9,1.3c1.7,1.5,1.4,3.8,1,6.4l-2.8,16.5h9.3l3.1-18.4C140.6,33.4,141.2,29.6,137,27.2z
	 M161.7,25.3c-10.7,0-14.3,4.8-16.3,7.4l2.2,0.9c1.7-1.5,4.6-4.1,10.6-4.1c2.7,0,6.6,0.7,7.7,3.6c0.5,1.2,0.5,2.4,0.3,3.6h0.2
	l-1.5,8.6h-0.2l-0.5,3.2c-2,0.9-4.4,2-7.7,2c-4.7,0-6-2.6-5.6-4.9c0.6-3.5,4.5-5.2,8.7-5.2c1.3,0,2.4,0.1,3.4,0.4l0.7-4
	c-1.7-0.4-3.5-0.6-5.8-0.6c-8.4,0-15.8,3.6-16.9,10c-0.8,5,3.1,8.9,10.4,8.9c6.7,0,10.6-2.7,12.4-4l-0.5,3.2h9.1l2.8-16.8
	c0.4-2.6,1-6.2-2.1-9C171.5,26.9,167.8,25.3,161.7,25.3L161.7,25.3z M243.7,51.9c-0.7,0-3.5,0-4.8-2.4c-0.5-0.9-0.8-2.1-0.4-4.4
	l2.1-12.7h10.2l1-5.9h-10.2l1.3-7.6h-9.3l-1.3,7.6h-9.8L214,40.3l-1.5,2.6c-0.5-1.5-0.6-1.7-1-3l-4.9-13.4h-3.1l-12.1,16.4
	c-0.3-1.4-0.3-1.7-0.6-2.9l-3.6-13.5h-9.8l8.6,28.1h3.4l12.2-16.2l6.7,16.2h3.4l14.5-22.1h5.2L229,46.2c-0.4,2.4-0.5,4.9,1.8,6.9
	c2.4,2.1,6.1,2.3,7.8,2.3c4.6,0,7.4-1.2,9.7-2.2l-0.8-1.7C246.2,51.6,245.2,51.9,243.7,51.9L243.7,51.9z M263,36.9
	c-0.1,0.2-0.4,0.8-0.7,2.6c-0.1,0.7-0.2,1.2-0.2,1.7H287c0.4-3,1.2-8.2-3.1-12.1c-3.8-3.4-9.3-3.8-12.4-3.8
	c-12.7,0-20.6,6.6-22,14.8c-1.4,8.5,4.2,15.4,17.1,15.4c12.4,0,16.2-5.7,18.3-8.8l-2.2-0.9c-2.9,2.4-5.9,5-12.4,5
	c-9.5,0-10.8-5.6-11-8.5c0-0.1-0.2-0.7,0.1-2.6c0.3-2,0.7-2.7,0.8-2.9c1.5-3.2,3.5-7,10.2-7c7,0,7,4.6,7,7.1L263,36.9L263,36.9
	L263,36.9z M96.7,18.9h-9.3l-4.6,27.3c-0.4,2.4-0.5,4.9,1.8,6.8c2.4,2.1,6.1,2.3,7.8,2.3c4.6,0,7.4-1.2,9.7-2.2l-0.8-1.7
	c-1.2,0.3-2.2,0.5-3.7,0.5c-0.7,0-3.5,0-4.8-2.4c-0.5-0.9-0.8-2.1-0.4-4.4l2.2-12.7h7.6l1-5.9h-7.6C95.4,26.5,96.7,18.9,96.7,18.9z"
	/>
<path class="st0" d="M35.7,0C16,0,0,16,0,35.7s16,35.7,35.7,35.7s35.7-16,35.7-35.7S55.5,0,35.7,0z M35.7,64.3
	c-15.8,0-28.6-12.8-28.6-28.6c0-15.8,12.8-28.6,28.6-28.6s28.6,12.8,28.6,28.6C64.4,51.5,51.5,64.3,35.7,64.3z M39.2,18.3h-9.3
	l-4.6,27.3c-0.4,2.4-0.5,4.9,1.8,6.8c2.4,2.1,6.1,2.3,7.8,2.3c4.6,0,7.4-1.2,9.7-2.2l-0.8-1.7c-1.2,0.3-2.2,0.5-3.7,0.5
	c-0.7,0-3.5,0-4.8-2.4c-0.5-0.9-0.8-2.1-0.4-4.4l2.1-12.7h7.6l1-5.9h-7.6C37.9,25.9,39.2,18.3,39.2,18.3z"/>
<path class="st0" d="M291.8,21.5h-2.3v6.1h-1.9v-6.1h-2.3v-1.5h6.6L291.8,21.5z M300.9,27.6h-1.9v-5l-1.4,3.3h-1.3l-1.4-3.3v5H293
	v-7.5h2.3l1.7,3.8l1.7-3.8h2.3L300.9,27.6L300.9,27.6L300.9,27.6z M311.5,60.9h-1.8v4.5h-1.5v-4.5h-1.8v-1.1h5L311.5,60.9
	L311.5,60.9z M319,65.4h-1.5v-3.8l-1,2.4h-1l-1-2.4v3.8h-1.4v-5.6h1.7l1.3,2.8l1.3-2.8h1.7V65.4z M175.9,62.6
	c-0.8,0-1.6,0.6-1.6,1.2c0,0.3,0.1,0.6,0.3,0.9c0.2,0.2,0.6,0.4,1,0.4c0.8,0,1.5-0.6,1.6-1.2C177.3,63.1,176.7,62.6,175.9,62.6
	L175.9,62.6z M173.1,74.6h2.6l1-8.5h-2.6L173.1,74.6z M182.4,63.8h-2.6l-0.3,2.3h-1.6l-0.2,1.3h1.6l-0.6,4.7
	c-0.1,0.7-0.1,1.5,0.6,2.1c0.7,0.6,1.7,0.7,2.2,0.7c1.3,0,2.1-0.4,2.7-0.7l-0.3-0.5c-0.3,0.1-0.6,0.2-1,0.2c-0.2,0-1,0-1.4-0.7
	c-0.2-0.3-0.2-0.6-0.2-1.3l0.5-4.3h2.3l0.2-1.3h-2.3L182.4,63.8z M186.6,62.9l-1.7,4.7l0.8,0.2l3.8-4.8H186.6z M191.6,67.1
	c2,0,2.4,0.9,2.5,1.2l0.7-0.2c0-0.3-0.1-0.8-0.6-1.3c-0.6-0.5-1.6-0.9-2.9-0.9c-3,0-4.5,1.5-4.6,2.8c-0.2,1.5,1.3,2,1.7,2.1
	c0.4,0.1,0.9,0.2,1.3,0.3c1.3,0.2,1.9,0.4,2.1,1c0,0.1,0.1,0.3,0.1,0.4c0,0.1-0.1,0.8-1.3,1.1c-0.4,0.1-0.7,0.1-1,0.1
	c-1.1,0-2-0.3-2.5-0.8c-0.2-0.2-0.3-0.5-0.4-0.7l-0.7,0.1c0,0.4,0.1,1,0.7,1.6c0.4,0.4,1.3,1,3.3,1c2.9,0,4.5-1.4,4.7-2.9
	c0.1-0.7-0.2-1.3-0.6-1.8c-0.5-0.5-1.3-0.7-1.8-0.8c-0.4-0.1-0.7-0.1-1.1-0.2c-0.9-0.2-1.8-0.4-1.7-1.2
	C189.5,67.6,190.2,67.1,191.6,67.1z M219,63.8h-2.6l-0.3,2.3h-1.6l-0.2,1.3h1.6l-0.6,4.7c-0.1,0.7-0.1,1.5,0.6,2.1
	c0.7,0.6,1.7,0.7,2.2,0.7c1.3,0,2.1-0.4,2.7-0.7l-0.3-0.5c-0.3,0.1-0.6,0.2-1,0.2c-0.2,0-1,0-1.4-0.7c-0.2-0.3-0.2-0.6-0.2-1.3
	l0.5-4.3h2.3l0.2-1.3h-2.3L219,63.8L219,63.8z M224.9,67.2l0.1-1.1h-2.7l-1,8.5h2.7l0.8-6.6c0.5-0.2,1.1-0.6,2.1-0.6
	c0.7,0,1.2,0.2,1.7,0.4l0.2-1.9c-0.2,0-0.5,0-0.8,0C226.3,65.9,225.4,66.8,224.9,67.2L224.9,67.2z M235.4,72.6
	c-0.6,0.5-1.4,0.9-2.2,0.9c-1.3,0-1.7-0.8-1.6-1.9l0.7-5.5h-2.7l-0.7,5.8c-0.1,0.8-0.4,2.9,3.1,2.9c1.8,0,2.7-0.8,3.3-1.3l-0.1,1
	h2.7l1-8.5h-2.7C236.2,66.1,235.4,72.6,235.4,72.6z M245.1,67.1c2,0,2.4,0.9,2.5,1.2l0.7-0.2c0-0.3-0.1-0.8-0.6-1.3
	c-0.6-0.5-1.6-0.9-2.9-0.9c-3,0-4.5,1.5-4.6,2.8c-0.2,1.5,1.3,2,1.7,2.1c0.4,0.1,0.9,0.2,1.3,0.3c1.3,0.2,1.9,0.4,2.1,1
	c0,0.1,0.1,0.3,0,0.4c0,0.1-0.1,0.8-1.3,1.1c-0.3,0.1-0.7,0.1-1,0.1c-1.1,0-2-0.3-2.5-0.8c-0.2-0.2-0.3-0.5-0.4-0.7l-0.7,0.1
	c0,0.4,0.1,1,0.7,1.6c0.4,0.4,1.3,1,3.3,1c2.9,0,4.5-1.4,4.7-2.9c0.1-0.7-0.2-1.3-0.6-1.8c-0.5-0.5-1.3-0.7-1.8-0.8
	c-0.4-0.1-0.7-0.1-1.1-0.2c-0.9-0.2-1.8-0.4-1.7-1.2C243,67.6,243.7,67.1,245.1,67.1z M253.8,63.8h-2.6l-0.3,2.3h-1.6l-0.2,1.3h1.6
	l-0.6,4.7c-0.1,0.7-0.1,1.5,0.6,2.1c0.7,0.6,1.7,0.7,2.2,0.7c1.3,0,2.1-0.4,2.7-0.7l-0.3-0.5c-0.3,0.1-0.6,0.2-1,0.2
	c-0.2,0-1,0-1.4-0.7c-0.2-0.3-0.2-0.6-0.2-1.3l0.5-4.3h2.3l0.2-1.3h-2.3C253.5,66.1,253.8,63.8,253.8,63.8z M265.3,63.8h-2.6
	l-0.3,2.3h-1.6l-0.2,1.3h1.6l-0.6,4.7c-0.1,0.7-0.1,1.5,0.6,2.1c0.7,0.6,1.7,0.7,2.2,0.7c1.3,0,2.1-0.4,2.7-0.7l-0.3-0.5
	c-0.3,0.1-0.6,0.2-1,0.2c-0.2,0-1,0-1.4-0.7c-0.2-0.3-0.2-0.6-0.2-1.3l0.5-4.3h2.3l0.2-1.3H265L265.3,63.8L265.3,63.8z M276.6,66.4
	c-0.5-0.3-1.2-0.5-2-0.5c-1.9,0-3,0.9-3.4,1.3l0.5-4.3h-2.6l-1.4,11.7h2.6l0.8-6.4c0.6-0.5,1.4-1,2.3-1c0.5,0,0.9,0.2,1.1,0.4
	c0.5,0.5,0.4,1.2,0.3,2l-0.6,5h2.6l0.7-5.6C277.7,68.3,277.8,67.1,276.6,66.4z M281.8,62.6c-0.8,0-1.6,0.6-1.6,1.2
	c0,0.3,0.1,0.6,0.3,0.9c0.2,0.2,0.6,0.4,1,0.4c0.8,0,1.5-0.6,1.6-1.2C283.2,63.1,282.6,62.6,281.8,62.6z M279,74.6h2.6l1-8.5h-2.6
	L279,74.6z M290.9,65.9c-1.9,0-2.9,0.9-3.5,1.4l0.1-1.1h-2.6l-1,8.5h2.6l0.8-6.3c0.5-0.4,1.2-1,2.3-1c1,0,1.4,0.5,1.5,1
	c0.1,0.3,0,0.6,0,0.9l-0.7,5.5h2.7l0.7-5.7c0.1-0.7,0.1-1.6-0.5-2.2C292.7,66.2,291.9,65.9,290.9,65.9L290.9,65.9z M303.3,66.1
	l-0.1,0.9c-0.4-0.4-1.1-1.3-2.9-1.3c-2.5,0-4.6,1.7-4.9,4.3c-0.3,2.8,1.7,4.2,3.7,4.2c1.1,0,2.2-0.4,2.9-0.9
	c0.2-0.1,0.4-0.3,0.5-0.4c-0.1,1-0.2,2.2-1.3,3c-0.3,0.2-1.1,0.8-2.5,0.8c-1.1,0-1.9-0.4-2.4-0.8c-0.2-0.2-0.3-0.4-0.6-0.7l-0.7,0.2
	c0.1,0.4,0.2,1,0.8,1.6c0.7,0.6,1.9,1,3.5,1c1.7,0,3.2-0.5,4.1-1.2c1.3-1,1.5-2.3,1.7-3.4l0.9-7.3L303.3,66.1L303.3,66.1z M302.6,72
	c-0.4,0.3-1.2,1-2.4,1c-1.2,0-2.3-0.9-2.1-2.8c0.2-1.9,1.4-3,2.9-3c1.2,0,1.7,0.6,2,1.1L302.6,72L302.6,72z M204.8,65.8
	c-3,0-4,1.5-4.5,2.3l0.6,0.3c0.5-0.4,1.3-1.3,3-1.3c0.8,0,1.9,0.2,2.2,1.1c0.2,0.4,0.2,0.9,0.1,1.3c-0.8-0.2-1.4-0.4-2.4-0.4
	c-2.4,0-4.4,1.1-4.7,3.1c-0.2,1.5,1,2.7,3,2.7c1.9,0,3-0.8,3.5-1.2l-0.1,1h2.6l0.6-5.1c0.1-0.8,0.2-1.9-0.7-2.7
	C207.6,66.3,206.5,65.8,204.8,65.8L204.8,65.8z M205.8,72.9c-0.6,0.3-1.2,0.6-2.2,0.6c-1.3,0-1.7-0.8-1.6-1.5
	c0.1-1.1,1.2-1.6,2.4-1.6c0.7,0,1.2,0.1,1.7,0.3C206.1,70.7,205.8,72.9,205.8,72.9z"/>
</svg>
