<svg width="78" height="26" viewBox="0 0 78 26" fill="none" xmlns="http://www.w3.org/2000/svg">
<mask id="mask0" mask-type="alpha" maskUnits="userSpaceOnUse" x="0" y="0" width="78" height="26">
<rect width="78" height="26" fill="#C4C4C4"/>
</mask>
<g mask="url(#mask0)">
<path fill-rule="evenodd" clip-rule="evenodd" d="M56.7052 1.07153C55.459 0.562272 53.4822 0 51.038 0C44.7982 0 40.4043 3.42705 40.3773 8.3267C40.3254 11.9416 43.5233 13.9495 45.915 15.1548C48.3595 16.3865 49.1905 17.1904 49.1905 18.2883C49.1656 19.9744 47.2152 20.7516 45.396 20.7516C42.8734 20.7516 41.5217 20.3509 39.4676 19.4128L38.6355 19.0107L37.7513 24.6605C39.2333 25.3559 41.9636 25.973 44.7982 26C51.4281 26 55.7444 22.626 55.7955 17.4046C55.8207 14.5395 54.1322 12.3441 50.4917 10.5502C48.2818 9.39858 46.9284 8.62206 46.9284 7.44378C46.9543 6.3726 48.0731 5.27544 50.5677 5.27544C52.6218 5.2217 54.1311 5.73025 55.2745 6.23914L55.846 6.5064L56.7052 1.07153ZM33.7999 25.6249H27.4814L31.4335 0.456227H37.7516L33.7999 25.6249ZM67.6257 9.66655C67.6257 9.66655 65.6235 15.2626 65.1031 16.7085H70.3551C70.0952 15.4502 68.8986 9.42563 68.8986 9.42563L68.4571 7.25693C68.2709 7.81595 68.0017 8.58468 67.8202 9.10255L67.8159 9.11479C67.6957 9.45822 67.6153 9.68796 67.6257 9.66655ZM68.0152 0.456227H72.9026L78 25.6246H72.1497C72.1497 25.6246 71.5771 22.7327 71.3957 21.8491H63.2832C63.0486 22.5181 61.9571 25.6246 61.9571 25.6246H55.3273L64.7127 2.54449C65.3629 0.911022 66.508 0.456227 68.0152 0.456227ZM22.2039 0.456227L16.0159 17.6189L15.3398 14.1391V14.1381C15.3395 14.1374 15.3394 14.1367 15.3392 14.1359L13.1298 2.57189C12.766 0.964407 11.6479 0.509259 10.2699 0.456227H0.10397L0 0.96476C2.47943 1.6178 4.697 2.55881 6.64013 3.72885L12.2719 25.5982H18.9536L28.8853 0.456227H22.2039Z" fill="#D9D9D9"/>
</g>
</svg>
