<?xml version="1.0" encoding="utf-8"?>
<!-- Generator: Adobe Illustrator 20.1.0, SVG Export Plug-In . SVG Version: 6.00 Build 0)  -->
<svg version="1.1" id="Слой_1" xmlns="http://www.w3.org/2000/svg" xmlns:xlink="http://www.w3.org/1999/xlink" x="0px" y="0px"
	 viewBox="0 0 200 75.8" style="enable-background:new 0 0 200 75.8;" xml:space="preserve">
<style type="text/css">
	.st0{fill:#C5CAD0;}
</style>
<g>
	<path class="st0" d="M70.7,65l8.7-54h14l-8.7,54H70.7"/>
	<path class="st0" d="M135.3,12.3c-2.8-1.1-7.1-2.3-12.5-2.3c-13.8,0-23.5,7.3-23.6,17.8c-0.1,7.8,6.9,12.1,12.2,14.7
		c5.4,2.6,7.3,4.3,7.2,6.7c0,3.6-4.3,5.3-8.4,5.3c-5.6,0-8.6-0.8-13.1-2.8l-1.8-0.9l-2,12.1c3.3,1.5,9.3,2.8,15.5,2.9
		c14.7,0,24.2-7.2,24.3-18.5c0.1-6.2-3.7-10.8-11.7-14.7c-4.9-2.5-7.9-4.2-7.8-6.7c0-2.2,2.5-4.6,8-4.6c4.6-0.1,7.9,1,10.4,2.1
		l1.3,0.6L135.3,12.3"/>
	<path class="st0" d="M153.9,45.8c1.2-3.1,5.6-15.1,5.6-15.1c-0.1,0.1,1.1-3.1,1.9-5.2l0.9,4.7c0,0,2.7,12.9,3.2,15.6H153.9
		L153.9,45.8z M171.1,11h-10.8c-3.3,0-5.8,1-7.3,4.5L132.3,65h14.7c0,0,2.4-6.7,2.9-8.1c1.6,0,15.8,0,17.9,0
		c0.4,1.9,1.7,8.1,1.7,8.1h12.9L171.1,11"/>
	<path class="st0" d="M59,11L45.4,47.8l-1.5-7.5c-2.5-8.6-10.5-18-19.3-22.7l12.5,47.3l14.8,0l22-53.9L59,11"/>
	<path class="st0" d="M32.7,11H10.2L10,12.1c17.5,4.5,29.1,15.3,33.9,28.3L39,15.5C38.2,12.1,35.7,11.1,32.7,11"/>
	<path class="st0" d="M186.3,61.5h0.7c0.5,0,0.6-0.3,0.6-0.5c0-0.4-0.2-0.5-0.6-0.5h-0.6V61.5L186.3,61.5z M185.8,60.1h1.4
		c0.3,0,1,0.1,1,0.9c0,0.2-0.1,0.5-0.5,0.7v0c0.4,0.1,0.4,0.4,0.4,0.7c0,0.5,0,0.6,0.1,0.7h-0.6c-0.1-0.1-0.1-0.2-0.1-0.7
		c0-0.3,0-0.6-0.7-0.6h-0.5v1.3h-0.6L185.8,60.1L185.8,60.1z M186.9,64.3c1.4,0,2.5-1.2,2.5-2.6c0-1.5-1.1-2.6-2.5-2.6
		s-2.5,1.2-2.5,2.6C184.4,63.1,185.5,64.3,186.9,64.3z M186.9,58.6c1.7,0,3.1,1.4,3.1,3.1c0,1.7-1.4,3.1-3.1,3.1
		c-1.7,0-3.1-1.4-3.1-3.1C183.8,59.9,185.2,58.6,186.9,58.6"/>
</g>
</svg>
